<?xml version="1.0" encoding="UTF-8" standalone="no"?>
<svg
   xmlns:dc="http://purl.org/dc/elements/1.1/"
   xmlns:cc="http://creativecommons.org/ns#"
   xmlns:rdf="http://www.w3.org/1999/02/22-rdf-syntax-ns#"
   xmlns:svg="http://www.w3.org/2000/svg"
   xmlns="http://www.w3.org/2000/svg"
   viewBox="0 0 1493.3333 1493.3333"
   height="1493.3333"
   width="1493.3333"
   xml:space="preserve"
   id="svg2"
   version="1.1"><metadata
     id="metadata8"><rdf:RDF><cc:Work
         rdf:about=""><dc:format>image/svg+xml</dc:format><dc:type
           rdf:resource="http://purl.org/dc/dcmitype/StillImage" /></cc:Work></rdf:RDF></metadata><defs
     id="defs6"><clipPath
       id="clipPath18"
       clipPathUnits="userSpaceOnUse"><path
         id="path16"
         d="M 0,1120 H 1120 V 0 H 0 Z" /></clipPath><clipPath
       id="clipPath26"
       clipPathUnits="userSpaceOnUse"><path
         id="path24"
         d="M -0.925797,1119.63 H 1119.07 V -0.365494 H -0.925797 Z" /></clipPath><clipPath
       id="clipPath250"
       clipPathUnits="userSpaceOnUse"><path
         id="path248"
         d="M 725.784,688.123 H 846.802 V 308.93 H 725.784 Z" /></clipPath><clipPath
       id="clipPath270"
       clipPathUnits="userSpaceOnUse"><path
         id="path268"
         d="m 343.809,505.898 h 25.082 V 321.127 h -25.082 z" /></clipPath><clipPath
       id="clipPath290"
       clipPathUnits="userSpaceOnUse"><path
         id="path288"
         d="m 500.196,505.898 h 25.082 V 321.127 h -25.082 z" /></clipPath></defs><g
     transform="matrix(1.3333333,0,0,-1.3333333,0,1493.3333)"
     id="g10"><g
       id="g12"><g
         clip-path="url(#clipPath18)"
         id="g14"><g
           id="g20"><g
             id="g22" /><g
             id="g32"><g
               style="opacity:0.5"
               id="g30"
               clip-path="url(#clipPath26)"><path
                 id="path28"
                 style="fill:#92d3d4;fill-opacity:1;fill-rule:nonzero;stroke:none"
                 d="m 1119.074,-0.365 h -1120 v 1120 h 1120 z" /></g></g></g><g
           transform="translate(986.9305,557)"
           id="g34"><path
             id="path36"
             style="fill:#b0d9d3;fill-opacity:1;fill-rule:nonzero;stroke:none"
             d="m 0,0 c 0,-236.34 -191.591,-427.93 -427.93,-427.93 -236.34,0 -427.931,191.59 -427.931,427.93 0,236.339 191.591,427.93 427.931,427.93 C -191.591,427.93 0,236.339 0,0" /></g><g
           transform="translate(441.8196,811.9286)"
           id="g38"><path
             id="path40"
             style="fill:#ed1c24;fill-opacity:1;fill-rule:nonzero;stroke:none"
             d="m 0,0 c 0,-47.204 -38.266,-85.47 -85.47,-85.47 -47.204,0 -85.47,38.266 -85.47,85.47 0,47.204 38.266,85.47 85.47,85.47 C -38.266,85.47 0,47.204 0,0" /></g><g
           transform="translate(286.2598,559.5227)"
           id="g42"><path
             id="path44"
             style="fill:#ffffff;fill-opacity:1;fill-rule:nonzero;stroke:none"
             d="m 0,0 c -0.204,5.587 -4.795,10.055 -10.432,10.055 -3.162,0 -5.993,-1.407 -7.908,-3.628 -0.833,4.271 -4.593,7.495 -9.108,7.495 -1.877,0 -3.624,-0.559 -5.084,-1.518 -0.808,11.225 -10.169,20.081 -21.6,20.081 -10.388,0 -19.067,-7.315 -21.169,-17.075 -2.115,1.465 -4.68,2.326 -7.448,2.326 -7.233,0 -13.096,-5.863 -13.096,-13.095 0,-1.635 0.302,-3.198 0.85,-4.641 z" /></g><g
           transform="translate(552.4101,937.9058)"
           id="g46"><path
             id="path48"
             style="fill:#ffffff;fill-opacity:1;fill-rule:nonzero;stroke:none"
             d="m 0,0 c -0.102,2.794 -2.397,5.027 -5.216,5.027 -1.581,0 -2.997,-0.703 -3.954,-1.813 -0.416,2.135 -2.296,3.747 -4.554,3.747 -0.939,0 -1.812,-0.28 -2.542,-0.759 -0.404,5.612 -5.084,10.04 -10.8,10.04 -5.194,0 -9.533,-3.657 -10.584,-8.537 -1.058,0.733 -2.341,1.163 -3.725,1.163 -3.616,0 -6.547,-2.931 -6.547,-6.548 0,-0.817 0.151,-1.599 0.424,-2.32 z" /></g><g
           transform="translate(417.732,798.1199)"
           id="g50"><path
             id="path52"
             style="fill:#ffffff;fill-opacity:1;fill-rule:nonzero;stroke:none"
             d="m 0,0 c -0.534,14.632 -12.557,26.333 -27.32,26.333 -8.281,0 -15.696,-3.686 -20.711,-9.5 -2.181,11.184 -12.029,19.628 -23.852,19.628 -4.918,0 -9.491,-1.465 -13.317,-3.976 -2.114,29.397 -26.63,52.59 -56.566,52.59 -27.206,0 -49.935,-19.158 -55.44,-44.718 -5.539,3.838 -12.258,6.093 -19.507,6.093 -18.941,0 -34.296,-15.355 -34.296,-34.296 0,-4.281 0.791,-8.375 2.224,-12.154 z" /></g><g
           transform="translate(813.7239,866.9524)"
           id="g54"><path
             id="path56"
             style="fill:#ffffff;fill-opacity:1;fill-rule:nonzero;stroke:none"
             d="m 0,0 c -0.204,5.587 -4.795,10.055 -10.432,10.055 -3.162,0 -5.993,-1.407 -7.908,-3.628 -0.833,4.271 -4.593,7.495 -9.108,7.495 -1.877,0 -3.624,-0.559 -5.084,-1.518 -0.808,11.225 -10.169,20.081 -21.599,20.081 -10.389,0 -19.067,-7.315 -21.17,-17.075 -2.115,1.465 -4.68,2.326 -7.448,2.326 -7.233,0 -13.096,-5.863 -13.096,-13.095 0,-1.635 0.303,-3.198 0.85,-4.641 z" /></g><g
           transform="translate(654.1476,700.7734)"
           id="g58"><path
             id="path60"
             style="fill:#ffffff;fill-opacity:1;fill-rule:nonzero;stroke:none"
             d="M 0,0 C 0.023,0.144 0.053,0.286 0.07,0.432 0.168,0.285 0.273,0.143 0.378,0 h 20.835 c 0.095,0.131 0.193,0.261 0.283,0.395 C 21.528,0.263 21.566,0.132 21.599,0 h 110.592 c -2.045,4.656 -6.694,7.91 -12.105,7.91 -4.024,0 -7.625,-1.801 -10.049,-4.637 -0.881,8.807 -8.313,15.683 -17.352,15.683 -4.081,0 -7.831,-1.405 -10.802,-3.753 C 78.485,28.688 66.28,38.67 51.74,38.67 c -14.695,0 -26.999,-10.198 -30.244,-23.9 -2.314,3.439 -6.243,5.703 -10.701,5.703 -7.112,0 -12.879,-5.76 -12.89,-12.87 -1.73,2.046 -4.314,3.346 -7.204,3.346 -5.209,0 -9.432,-4.223 -9.432,-9.432 0,-0.517 0.043,-1.023 0.123,-1.517 z" /></g><g
           transform="translate(872.9949,559.4269)"
           id="g62"><path
             id="path64"
             style="fill:#ffffff;fill-opacity:1;fill-rule:nonzero;stroke:none"
             d="M 0,0 C 0.016,0.098 0.036,0.194 0.048,0.294 0.115,0.194 0.186,0.097 0.257,0 H 14.425 C 14.49,0.089 14.556,0.177 14.618,0.269 14.639,0.179 14.665,0.09 14.687,0 H 89.89 c -1.39,3.166 -4.552,5.378 -8.231,5.378 -2.737,0 -5.185,-1.224 -6.834,-3.153 -0.599,5.989 -5.653,10.665 -11.799,10.665 -2.775,0 -5.325,-0.955 -7.345,-2.552 -2.311,9.17 -10.611,15.958 -20.498,15.958 -9.992,0 -18.359,-6.935 -20.565,-16.253 -1.574,2.339 -4.246,3.878 -7.277,3.878 -4.837,0 -8.758,-3.916 -8.765,-8.751 -1.177,1.391 -2.934,2.275 -4.899,2.275 -3.542,0 -6.414,-2.871 -6.414,-6.414 0,-0.351 0.029,-0.695 0.083,-1.031 z" /></g><g
           transform="translate(735.9511,886.852)"
           id="g66"><path
             id="path68"
             style="fill:#8cc63f;fill-opacity:1;fill-rule:nonzero;stroke:none"
             d="m 0,0 c 0,-15.545 -25.529,-39.253 -28.54,-39.253 -3.116,0 -28.541,23.708 -28.541,39.253 0,15.546 12.778,28.148 28.541,28.148 C -12.777,28.148 0,15.546 0,0" /></g><g
           transform="translate(730.1647,886.852)"
           id="g70"><path
             id="path72"
             style="fill:#f1f6db;fill-opacity:1;fill-rule:nonzero;stroke:none"
             d="m 0,0 c 0,-15.545 -20.353,-39.253 -22.754,-39.253 -2.484,0 -22.754,23.708 -22.754,39.253 0,15.546 10.188,28.148 22.754,28.148 C -10.187,28.148 0,15.546 0,0" /></g><g
           transform="translate(721.7001,886.8524)"
           id="g74"><path
             id="path76"
             style="fill:#8cc63f;fill-opacity:1;fill-rule:nonzero;stroke:none"
             d="m 0,0 c 0,-15.546 -12.782,-39.254 -14.289,-39.254 -1.56,0 -14.289,23.708 -14.289,39.254 0,15.545 6.397,28.148 14.289,28.148 C -6.397,28.148 0,15.545 0,0" /></g><g
           transform="translate(713.02,886.8524)"
           id="g78"><path
             id="path80"
             style="fill:#f1f6db;fill-opacity:1;fill-rule:nonzero;stroke:none"
             d="m 0,0 c 0,-15.546 -5.017,-39.254 -5.609,-39.254 -0.613,0 -5.609,23.708 -5.609,39.254 0,15.545 2.511,28.148 5.609,28.148 C -2.512,28.148 0,15.545 0,0" /></g><g
           transform="translate(713.02,846.8939)"
           id="g82"><path
             id="path84"
             style="fill:#8cc63f;fill-opacity:1;fill-rule:nonzero;stroke:none"
             d="m 0,0 h -11.266 l -4.01,8.292 H 3.836 Z" /></g><g
           transform="translate(703.4627,837.6362)"
           id="g86"><path
             id="path88"
             style="fill:#452518;fill-opacity:1;fill-rule:nonzero;stroke:none"
             d="M 0,0 1.562,5.671 H 6.526 L 7.463,0 Z M 7.981,0 8.485,0.083 7.393,6.692 H 0.784 L -1.022,0.135 -0.529,0 h -3.588 v -8.124 c 0,-3.286 2.664,-5.95 5.951,-5.95 h 4.008 c 3.285,0 5.949,2.664 5.949,5.95 V 0 Z" /></g><path
           id="path90"
           style="fill:#452518;fill-opacity:1;fill-rule:nonzero;stroke:none"
           d="m 709.444,844.328 h -0.511 v 2.566 h 0.511 z" /><path
           id="path92"
           style="fill:#452518;fill-opacity:1;fill-rule:nonzero;stroke:none"
           d="m 706.125,844.328 h -0.511 v 2.566 h 0.511 z" /><path
           id="path94"
           style="fill:#f1f6db;fill-opacity:1;fill-rule:nonzero;stroke:none"
           d="m 715.254,834.096 h -15.907 v 0.955 h 15.907 z" /><g
           transform="translate(708.3636,833.3884)"
           id="g96"><path
             id="path98"
             style="fill:#8cc63f;fill-opacity:1;fill-rule:nonzero;stroke:none"
             d="m 0,0 c 0,-0.626 -0.507,-1.132 -1.133,-1.132 -0.625,0 -1.132,0.506 -1.132,1.132 v 1.9 c 0,0.626 0.507,1.133 1.132,1.133 C -0.507,3.033 0,2.526 0,1.9 Z" /></g><g
           transform="translate(713.2137,833.3884)"
           id="g100"><path
             id="path102"
             style="fill:#8cc63f;fill-opacity:1;fill-rule:nonzero;stroke:none"
             d="m 0,0 c 0,-0.626 -0.507,-1.132 -1.132,-1.132 -0.626,0 -1.133,0.506 -1.133,1.132 v 1.9 c 0,0.626 0.507,1.133 1.133,1.133 C -0.507,3.033 0,2.526 0,1.9 Z" /></g><g
           transform="translate(703.7681,833.3884)"
           id="g104"><path
             id="path106"
             style="fill:#8cc63f;fill-opacity:1;fill-rule:nonzero;stroke:none"
             d="m 0,0 c 0,-0.626 -0.507,-1.132 -1.133,-1.132 -0.625,0 -1.132,0.506 -1.132,1.132 v 1.9 c 0,0.626 0.507,1.133 1.132,1.133 C -0.507,3.033 0,2.526 0,1.9 Z" /></g><g
           transform="translate(465.4915,627.7991)"
           id="g108"><path
             id="path110"
             style="fill:#f06340;fill-opacity:1;fill-rule:nonzero;stroke:none"
             d="m 0,0 c 0,-13.918 -22.856,-35.143 -25.552,-35.143 -2.789,0 -25.553,21.225 -25.553,35.143 0,13.918 11.441,25.201 25.553,25.201 C -11.44,25.201 0,13.918 0,0" /></g><g
           transform="translate(460.3109,627.7991)"
           id="g112"><path
             id="path114"
             style="fill:#f1f6db;fill-opacity:1;fill-rule:nonzero;stroke:none"
             d="m 0,0 c 0,-13.918 -18.222,-35.143 -20.371,-35.143 -2.225,0 -20.372,21.225 -20.372,35.143 0,13.918 9.121,25.201 20.372,25.201 C -9.121,25.201 0,13.918 0,0" /></g><g
           transform="translate(452.7325,627.7995)"
           id="g116"><path
             id="path118"
             style="fill:#f06340;fill-opacity:1;fill-rule:nonzero;stroke:none"
             d="m 0,0 c 0,-13.918 -11.444,-35.144 -12.793,-35.144 -1.397,0 -12.793,21.226 -12.793,35.144 0,13.917 5.727,25.201 12.793,25.201 C -5.727,25.201 0,13.917 0,0" /></g><g
           transform="translate(444.9614,627.7995)"
           id="g120"><path
             id="path122"
             style="fill:#f1f6db;fill-opacity:1;fill-rule:nonzero;stroke:none"
             d="m 0,0 c 0,-13.918 -4.492,-35.144 -5.022,-35.144 -0.548,0 -5.022,21.226 -5.022,35.144 0,13.917 2.248,25.201 5.022,25.201 C -2.249,25.201 0,13.917 0,0" /></g><g
           transform="translate(444.9614,592.0248)"
           id="g124"><path
             id="path126"
             style="fill:#dc5b3a;fill-opacity:1;fill-rule:nonzero;stroke:none"
             d="m 0,0 h -10.086 l -3.59,7.424 H 3.435 Z" /></g><g
           transform="translate(436.4047,583.7362)"
           id="g128"><path
             id="path130"
             style="fill:#452518;fill-opacity:1;fill-rule:nonzero;stroke:none"
             d="M 0,0 1.398,5.077 H 5.843 L 6.681,0 Z M 7.145,0 7.596,0.075 6.619,5.991 H 0.702 L -0.915,0.121 -0.474,0 h -3.211 v -7.273 c 0,-2.942 2.384,-5.327 5.327,-5.327 H 5.23 c 2.942,0 5.326,2.385 5.326,5.327 V 0 Z" /></g><path
           id="path132"
           style="fill:#452518;fill-opacity:1;fill-rule:nonzero;stroke:none"
           d="m 441.759,589.727 h -0.457 v 2.297 h 0.457 z" /><path
           id="path134"
           style="fill:#452518;fill-opacity:1;fill-rule:nonzero;stroke:none"
           d="m 438.788,589.727 h -0.457 v 2.297 h 0.457 z" /><path
           id="path136"
           style="fill:#f1f6db;fill-opacity:1;fill-rule:nonzero;stroke:none"
           d="m 446.961,580.566 h -14.242 v 0.855 h 14.242 z" /><g
           transform="translate(440.7925,579.9332)"
           id="g138"><path
             id="path140"
             style="fill:#f06340;fill-opacity:1;fill-rule:nonzero;stroke:none"
             d="m 0,0 c 0,-0.56 -0.454,-1.014 -1.014,-1.014 -0.56,0 -1.014,0.454 -1.014,1.014 v 1.701 c 0,0.56 0.454,1.014 1.014,1.014 C -0.454,2.715 0,2.261 0,1.701 Z" /></g><g
           transform="translate(445.1347,579.9332)"
           id="g142"><path
             id="path144"
             style="fill:#f06340;fill-opacity:1;fill-rule:nonzero;stroke:none"
             d="m 0,0 c 0,-0.56 -0.454,-1.014 -1.013,-1.014 -0.561,0 -1.014,0.454 -1.014,1.014 v 1.701 c 0,0.56 0.453,1.014 1.014,1.014 C -0.454,2.715 0,2.261 0,1.701 Z" /></g><g
           transform="translate(436.6781,579.9332)"
           id="g146"><path
             id="path148"
             style="fill:#f06340;fill-opacity:1;fill-rule:nonzero;stroke:none"
             d="m 0,0 c 0,-0.56 -0.454,-1.014 -1.014,-1.014 -0.56,0 -1.014,0.454 -1.014,1.014 v 1.701 c 0,0.56 0.454,1.014 1.014,1.014 C -0.454,2.715 0,2.261 0,1.701 Z" /></g><g
           transform="translate(500.196,960.3155)"
           id="g150"><path
             id="path152"
             style="fill:#f06340;fill-opacity:1;fill-rule:nonzero;stroke:none"
             d="m 0,0 c 0,-5.456 -8.961,-13.778 -10.018,-13.778 -1.093,0 -10.017,8.322 -10.017,13.778 0,5.456 4.485,9.88 10.017,9.88 C -4.485,9.88 0,5.456 0,0" /></g><g
           transform="translate(498.165,960.3155)"
           id="g154"><path
             id="path156"
             style="fill:#f1f6db;fill-opacity:1;fill-rule:nonzero;stroke:none"
             d="m 0,0 c 0,-5.456 -7.144,-13.778 -7.987,-13.778 -0.872,0 -7.986,8.322 -7.986,13.778 0,5.457 3.576,9.88 7.986,9.88 C -3.576,9.88 0,5.457 0,0" /></g><g
           transform="translate(495.1939,960.3157)"
           id="g158"><path
             id="path160"
             style="fill:#f06340;fill-opacity:1;fill-rule:nonzero;stroke:none"
             d="m 0,0 c 0,-5.456 -4.486,-13.778 -5.015,-13.778 -0.548,0 -5.016,8.322 -5.016,13.778 0,5.456 2.246,9.88 5.016,9.88 C -2.245,9.88 0,5.456 0,0" /></g><g
           transform="translate(492.1473,960.3157)"
           id="g162"><path
             id="path164"
             style="fill:#f1f6db;fill-opacity:1;fill-rule:nonzero;stroke:none"
             d="m 0,0 c 0,-5.456 -1.761,-13.778 -1.969,-13.778 -0.215,0 -1.969,8.322 -1.969,13.778 0,5.456 0.882,9.88 1.969,9.88 C -0.882,9.88 0,5.456 0,0" /></g><g
           transform="translate(492.1473,946.2905)"
           id="g166"><path
             id="path168"
             style="fill:#dc5b3a;fill-opacity:1;fill-rule:nonzero;stroke:none"
             d="M 0,0 H -3.954 L -5.362,2.91 H 1.347 Z" /></g><g
           transform="translate(488.7927,943.041)"
           id="g170"><path
             id="path172"
             style="fill:#452518;fill-opacity:1;fill-rule:nonzero;stroke:none"
             d="M 0,0 0.548,1.99 H 2.291 L 2.619,0 Z M 2.801,0 2.978,0.029 2.595,2.349 H 0.275 L -0.359,0.047 -0.186,0 h -1.259 v -2.852 c 0,-1.153 0.935,-2.088 2.089,-2.088 h 1.407 c 1.153,0 2.088,0.935 2.088,2.088 V 0 Z" /></g><path
           id="path174"
           style="fill:#452518;fill-opacity:1;fill-rule:nonzero;stroke:none"
           d="m 490.892,945.39 h -0.179 v 0.901 h 0.179 z" /><path
           id="path176"
           style="fill:#452518;fill-opacity:1;fill-rule:nonzero;stroke:none"
           d="m 489.727,945.39 h -0.179 v 0.901 h 0.179 z" /><path
           id="path178"
           style="fill:#f1f6db;fill-opacity:1;fill-rule:nonzero;stroke:none"
           d="m 492.931,941.798 h -5.583 v 0.335 h 5.583 z" /><g
           transform="translate(490.5129,941.55)"
           id="g180"><path
             id="path182"
             style="fill:#f06340;fill-opacity:1;fill-rule:nonzero;stroke:none"
             d="m 0,0 c 0,-0.219 -0.178,-0.397 -0.397,-0.397 -0.22,0 -0.398,0.178 -0.398,0.397 v 0.667 c 0,0.22 0.178,0.398 0.398,0.398 C -0.178,1.065 0,0.887 0,0.667 Z" /></g><g
           transform="translate(492.2153,941.55)"
           id="g184"><path
             id="path186"
             style="fill:#f06340;fill-opacity:1;fill-rule:nonzero;stroke:none"
             d="m 0,0 c 0,-0.219 -0.178,-0.397 -0.397,-0.397 -0.22,0 -0.398,0.178 -0.398,0.397 v 0.667 c 0,0.22 0.178,0.398 0.398,0.398 C -0.178,1.065 0,0.887 0,0.667 Z" /></g><g
           transform="translate(488.8999,941.55)"
           id="g188"><path
             id="path190"
             style="fill:#f06340;fill-opacity:1;fill-rule:nonzero;stroke:none"
             d="m 0,0 c 0,-0.219 -0.178,-0.397 -0.398,-0.397 -0.219,0 -0.397,0.178 -0.397,0.397 v 0.667 c 0,0.22 0.178,0.398 0.397,0.398 C -0.178,1.065 0,0.887 0,0.667 Z" /></g><g
           transform="translate(278.1045,309.256)"
           id="g192"><path
             id="path194"
             style="fill:#5b7b8c;fill-opacity:1;fill-rule:nonzero;stroke:none"
             d="m 0,0 222.988,386.541 3.395,-26.393 23.961,6 10.643,-23.999 23.909,23.999 24.565,-29.907 32.522,20.907 22.827,0.463 21.291,28.93 L 584.635,0 Z" /></g><g
           transform="translate(501.0928,695.7966)"
           id="g196"><path
             id="path198"
             style="fill:#ffffff;fill-opacity:1;fill-rule:nonzero;stroke:none"
             d="m 0,0 -67.101,-116.317 25.675,6.243 -6.667,-38.056 17.334,24.908 14,-2.908 20.666,22.341 v -53.008 l 18,33.575 4,-29.575 8,2 v -26 l 24,60 11.422,-29.333 8.578,13.333 25.334,-32.666 -2.667,55.389 8,-20.056 h 8.667 l 17.082,-26.667 -4.416,53.008 18,-27.008 10.667,1.334 v 22 l 18,-28.334 v 28.334 l 5.333,-2.611 6.667,25.277 21.21,-35.234 1.876,25.509 L 163.112,0 141.821,-28.93 118.995,-29.392 86.473,-50.299 61.907,-20.393 37.999,-44.392 27.356,-20.393 3.395,-26.392 Z" /></g><g
           transform="translate(821.7648,319.9174)"
           id="g200"><path
             id="path202"
             style="fill:#bf1e2d;fill-opacity:1;fill-rule:nonzero;stroke:none"
             d="M 0,0 V 268.388 H -192.481 V 0 h -10.287 V -10.988 H -192.481 0 10.287 V 0 Z" /></g><g
           transform="translate(725.8244,388.4973)"
           id="g204"><path
             id="path206"
             style="fill:#242626;fill-opacity:1;fill-rule:nonzero;stroke:none"
             d="m 0,0 v 0.016 c 0,0 -0.107,-0.003 -0.3,-0.008 -0.193,0.005 -0.3,0.008 -0.3,0.008 V 0 c -7.692,-0.206 -87.917,-2.205 -120.458,3.228 0,0 8.521,-14.629 24.817,-14.629 H -0.6 0 95.64 c 16.297,0 24.818,14.629 24.818,14.629 C 87.916,-2.205 7.692,-0.206 0,0" /></g><g
           transform="translate(725.8244,457.0003)"
           id="g208"><path
             id="path210"
             style="fill:#242626;fill-opacity:1;fill-rule:nonzero;stroke:none"
             d="m 0,0 v 0.017 c 0,0 -0.107,-0.004 -0.3,-0.009 -0.193,0.005 -0.3,0.009 -0.3,0.009 V 0 c -7.692,-0.206 -87.917,-2.205 -120.458,3.228 0,0 8.521,-14.629 24.817,-14.629 H -0.6 0 95.64 c 16.297,0 24.818,14.629 24.818,14.629 C 87.916,-2.205 7.692,-0.206 0,0" /></g><g
           transform="translate(725.8244,525.5032)"
           id="g212"><path
             id="path214"
             style="fill:#242626;fill-opacity:1;fill-rule:nonzero;stroke:none"
             d="m 0,0 v 0.017 c 0,0 -0.107,-0.003 -0.3,-0.009 -0.193,0.006 -0.3,0.009 -0.3,0.009 V 0 c -7.692,-0.206 -87.917,-2.205 -120.458,3.228 0,0 8.521,-14.629 24.817,-14.629 H -0.6 0 95.64 c 16.297,0 24.818,14.629 24.818,14.629 C 87.916,-2.205 7.692,-0.206 0,0" /></g><path
           id="path216"
           style="fill:#e7e8e9;fill-opacity:1;fill-rule:nonzero;stroke:none"
           d="M 810.746,323.018 H 640.302 v 24.261 h 170.444 z" /><path
           id="path218"
           style="fill:#e7e8e9;fill-opacity:1;fill-rule:nonzero;stroke:none"
           d="m 721.427,356.794 h -81.125 v 13.32 h 81.125 z" /><path
           id="path220"
           style="fill:#e7e8e9;fill-opacity:1;fill-rule:nonzero;stroke:none"
           d="m 810.746,356.794 h -81.125 v 13.32 h 81.125 z" /><path
           id="path222"
           style="fill:#e7e8e9;fill-opacity:1;fill-rule:nonzero;stroke:none"
           d="M 810.746,391.725 H 640.302 v 24.261 h 170.444 z" /><path
           id="path224"
           style="fill:#e7e8e9;fill-opacity:1;fill-rule:nonzero;stroke:none"
           d="m 721.427,425.501 h -81.125 v 13.32 h 81.125 z" /><path
           id="path226"
           style="fill:#e7e8e9;fill-opacity:1;fill-rule:nonzero;stroke:none"
           d="m 810.746,425.501 h -81.125 v 13.32 h 81.125 z" /><path
           id="path228"
           style="fill:#e7e8e9;fill-opacity:1;fill-rule:nonzero;stroke:none"
           d="M 810.746,460.431 H 640.302 v 24.262 h 170.444 z" /><path
           id="path230"
           style="fill:#e7e8e9;fill-opacity:1;fill-rule:nonzero;stroke:none"
           d="m 721.427,494.207 h -81.125 v 13.32 h 81.125 z" /><path
           id="path232"
           style="fill:#e7e8e9;fill-opacity:1;fill-rule:nonzero;stroke:none"
           d="m 810.746,494.207 h -81.125 v 13.32 h 81.125 z" /><path
           id="path234"
           style="fill:#e7e8e9;fill-opacity:1;fill-rule:nonzero;stroke:none"
           d="M 810.746,529.138 H 640.302 V 553.4 h 170.444 z" /><path
           id="path236"
           style="fill:#e7e8e9;fill-opacity:1;fill-rule:nonzero;stroke:none"
           d="m 721.427,562.914 h -81.125 v 13.32 h 81.125 z" /><path
           id="path238"
           style="fill:#e7e8e9;fill-opacity:1;fill-rule:nonzero;stroke:none"
           d="m 810.746,562.914 h -81.125 v 13.32 h 81.125 z" /><g
           transform="translate(846.8018,597.2338)"
           id="g240"><path
             id="path242"
             style="fill:#242626;fill-opacity:1;fill-rule:nonzero;stroke:none"
             d="m 0,0 c -104.589,25.416 -120.758,90.889 -120.758,90.889 l -0.26,-6.327 -0.259,6.327 c 0,0 -16.17,-65.473 -120.758,-90.889 0,0 8.521,-14.628 24.817,-14.628 h 95.641 0.6 95.64 c 14.958,0 23.36,12.316 24.64,14.34 z" /></g><g
           id="g244"><g
             id="g246" /><g
             id="g258"><g
               style="opacity:0.10000598"
               id="g256"
               clip-path="url(#clipPath250)"><g
                 id="g254"
                 transform="translate(846.2823,528.7308)"><path
                   id="path252"
                   style="fill:#414142;fill-opacity:1;fill-rule:nonzero;stroke:none"
                   d="m 0,0 c -6.562,-1.095 -15.064,-1.888 -24.518,-2.455 v 56.337 c 14.769,0.165 23.069,12.323 24.34,14.333 l 0.697,0.288 c -104.588,25.416 -120.758,90.889 -120.758,90.889 l -0.259,-6.325 v -372.868 h 95.98 10.287 v 10.988 h -10.287 v 57.187 c 16.099,0.18 24.518,14.62 24.518,14.62 -6.562,-1.095 -15.064,-1.888 -24.518,-2.455 v 56.338 C -8.419,-82.943 0,-68.503 0,-68.503 c -6.562,-1.095 -15.064,-1.888 -24.518,-2.455 V -14.62 C -8.419,-14.44 0,0 0,0" /></g></g></g></g><g
           transform="translate(376.9,427.1421)"
           id="g260"><path
             id="path262"
             style="fill:#ed1c24;fill-opacity:1;fill-rule:nonzero;stroke:none"
             d="m 0,0 v 32.117 h -0.632 v 40.678 h 7.973 v 5.961 h -29.894 v -5.961 h 6.113 V 32.117 10.826 0 h -16.651 l 10.433,-9.602 v -96.413 H -16.44 0 6.218 V -9.989 L 17.073,0 Z" /></g><g
           id="g264"><g
             id="g266" /><g
             id="g278"><g
               style="opacity:0.5"
               id="g276"
               clip-path="url(#clipPath270)"><g
                 id="g274"
                 transform="translate(368.8909,505.8985)"><path
                   id="path272"
                   style="fill:#bf1e2d;fill-opacity:1;fill-rule:nonzero;stroke:none"
                   d="m 0,0 h -14.544 v -5.962 h 6.113 V -46.64 -67.93 -78.756 h -16.651 l 10.434,-9.602 v -96.414 H -8.431 0 Z" /></g></g></g></g><g
           transform="translate(533.2874,427.1421)"
           id="g280"><path
             id="path282"
             style="fill:#ed1c24;fill-opacity:1;fill-rule:nonzero;stroke:none"
             d="m 0,0 v 32.117 h -0.632 v 40.678 h 7.973 v 5.961 h -29.894 v -5.961 h 6.113 V 32.117 10.826 0 h -16.651 l 10.433,-9.602 v -96.413 H -16.44 0 6.218 V -9.989 L 17.073,0 Z" /></g><g
           id="g284"><g
             id="g286" /><g
             id="g298"><g
               style="opacity:0.5"
               id="g296"
               clip-path="url(#clipPath290)"><g
                 id="g294"
                 transform="translate(525.2784,505.8985)"><path
                   id="path292"
                   style="fill:#bf1e2d;fill-opacity:1;fill-rule:nonzero;stroke:none"
                   d="m 0,0 h -14.544 v -5.962 h 6.113 V -46.64 -67.93 -78.756 h -16.651 l 10.433,-9.602 v -96.414 H -8.431 0 Z" /></g></g></g></g><path
           id="path300"
           style="fill:#ed1c24;fill-opacity:1;fill-rule:nonzero;stroke:none"
           d="M 574.58,471.839 H 320.441 v 7.209 H 574.58 Z" /><path
           id="path302"
           style="fill:#bf1e2d;fill-opacity:1;fill-rule:nonzero;stroke:none"
           d="M 557.114,462.559 H 337.907 v 10.123 h 219.207 z" /><g
           transform="translate(552.2143,526.916)"
           id="g304"><path
             id="path306"
             style="fill:#ed1c24;fill-opacity:1;fill-rule:nonzero;stroke:none"
             d="m 0,0 h -95.851 -17.706 -95.851 l -19.654,-21.018 h 115.505 17.706 115.505 z" /></g><g
           transform="translate(329.0094,512.1617)"
           id="g308"><path
             id="path310"
             style="fill:#bf1e2d;fill-opacity:1;fill-rule:nonzero;stroke:none"
             d="m 0,0 -5.857,-6.263 h 115.505 17.706 115.505 L 237.002,0 Z" /></g><g
           transform="translate(447.8775,533.0626)"
           id="g312"><path
             id="path314"
             style="fill:#242626;fill-opacity:1;fill-rule:nonzero;stroke:none"
             d="m 0,0 v 0.02 c 0,0 -0.131,-0.004 -0.367,-0.01 -0.236,0.006 -0.367,0.01 -0.367,0.01 V 0 c -9.411,-0.252 -107.561,-2.697 -147.374,3.949 0,0 10.425,-17.897 30.363,-17.897 l 113.394,-4.265 c 2.655,-0.1 5.313,-0.1 7.968,0 l 113.394,4.265 c 19.938,0 30.363,17.897 30.363,17.897 C 107.561,-2.697 9.411,-0.252 0,0" /></g><path
           id="path316"
           style="fill:#bf1e2d;fill-opacity:1;fill-rule:nonzero;stroke:none"
           d="m 388.212,307.99 h -39.064 v 13.98 h 39.064 z" /><path
           id="path318"
           style="fill:#bf1e2d;fill-opacity:1;fill-rule:nonzero;stroke:none"
           d="m 544.81,307.99 h -39.064 v 13.98 h 39.064 z" /><path
           id="path320"
           style="fill:#e7e8e9;fill-opacity:1;fill-rule:nonzero;stroke:none"
           d="m 456.784,481.81 h -18.548 v 27.22 h 18.548 z" /><g
           transform="translate(858.7399,275.0689)"
           id="g322"><path
             id="path324"
             style="fill:#85be40;fill-opacity:1;fill-rule:nonzero;stroke:none"
             d="m 0,0 h -599.48 c -9.045,0 -16.446,7.401 -16.446,16.446 v 1.414 c 0,9.046 7.401,16.446 16.446,16.446 H 0 c 9.045,0 16.446,-7.4 16.446,-16.446 V 16.446 C 16.446,7.401 9.045,0 0,0" /></g><path
           id="path326"
           style="fill:#603912;fill-opacity:1;fill-rule:nonzero;stroke:none"
           d="M 833.828,254.191 H 284.172 v 20.878 h 549.656 z" /><g
           transform="translate(242.8139,292.2222)"
           id="g328"><path
             id="path330"
             style="fill:#5f873b;fill-opacity:1;fill-rule:nonzero;stroke:none"
             d="m 0,0 v -0.707 c 0,-9.045 7.401,-16.446 16.446,-16.446 h 599.48 c 9.045,0 16.446,7.401 16.446,16.446 l 0,0.707 z" /></g><g
           transform="translate(420.944,439.0601)"
           id="g332"><path
             id="path334"
             style="fill:#85be40;fill-opacity:1;fill-rule:nonzero;stroke:none"
             d="M 0,0 C -0.095,0 -0.187,-0.006 -0.282,-0.007 -0.1,1.689 0,3.411 0,5.155 c 0,26.402 -21.403,47.804 -47.804,47.804 -26.402,0 -47.804,-21.402 -47.804,-47.804 0,-1.744 0.099,-3.466 0.282,-5.162 -0.095,0.001 -0.188,0.007 -0.282,0.007 -14.236,0 -25.777,-11.541 -25.777,-25.777 0,-14.236 11.541,-25.776 25.777,-25.776 6.35,0 12.16,2.3 16.652,6.107 7.198,-9.312 18.471,-15.315 31.152,-15.315 12.681,0 23.953,6.003 31.152,15.315 4.492,-3.807 10.302,-6.107 16.652,-6.107 14.236,0 25.777,11.54 25.777,25.776 C 25.777,-11.541 14.236,0 0,0" /></g><g
           transform="translate(431.0511,437.6897)"
           id="g336"><path
             id="path338"
             style="fill:#6b8c40;fill-opacity:1;fill-rule:nonzero;stroke:none"
             d="M 0,0 C -0.057,0 -0.114,-0.004 -0.171,-0.004 -0.06,1.027 0,2.073 0,3.134 c 0,16.049 -13.011,29.06 -29.06,29.06 -16.049,0 -29.06,-13.011 -29.06,-29.06 0,-1.061 0.061,-2.107 0.172,-3.138 -0.058,0 -0.114,0.004 -0.172,0.004 -8.654,0 -15.669,-7.016 -15.669,-15.669 0,-8.655 7.015,-15.67 15.669,-15.67 3.86,0 7.392,1.398 10.123,3.713 4.376,-5.661 11.228,-9.311 18.937,-9.311 7.709,0 14.561,3.65 18.937,9.311 2.731,-2.315 6.263,-3.713 10.123,-3.713 8.654,0 15.669,7.015 15.669,15.67 C 15.669,-7.016 8.654,0 0,0" /></g><path
           id="path340"
           style="fill:#603912;fill-opacity:1;fill-rule:nonzero;stroke:none"
           d="m 382.854,306.427 h -11.93 v 85.297 h 11.93 z" /><path
           id="path342"
           style="fill:#754c29;fill-opacity:1;fill-rule:nonzero;stroke:none"
           d="m 379.105,306.427 h -11.93 v 85.297 h 11.93 z" /><g
           transform="translate(427.8411,433.2374)"
           id="g344"><path
             id="path346"
             style="fill:#85be40;fill-opacity:1;fill-rule:nonzero;stroke:none"
             d="M 0,0 C -0.051,0 -0.1,-0.003 -0.151,-0.004 -0.053,0.903 0,1.823 0,2.756 c 0,14.115 -11.442,25.557 -25.557,25.557 -14.115,0 -25.557,-11.442 -25.557,-25.557 0,-0.933 0.053,-1.853 0.151,-2.76 -0.051,0.001 -0.101,0.004 -0.151,0.004 -7.611,0 -13.781,-6.17 -13.781,-13.781 0,-7.611 6.17,-13.78 13.781,-13.78 3.395,0 6.501,1.229 8.903,3.265 3.848,-4.979 9.874,-8.188 16.654,-8.188 6.78,0 12.806,3.209 16.654,8.188 2.402,-2.036 5.508,-3.265 8.903,-3.265 7.611,0 13.781,6.169 13.781,13.78 C 13.781,-6.17 7.611,0 0,0" /></g><g
           transform="translate(385.9264,420.9064)"
           id="g348"><path
             id="path350"
             style="fill:#6b8c40;fill-opacity:1;fill-rule:nonzero;stroke:none"
             d="M 0,0 C -0.067,0 -0.133,-0.004 -0.201,-0.005 -0.071,1.202 0,2.427 0,3.668 c 0,18.785 -15.228,34.013 -34.013,34.013 -18.785,0 -34.014,-15.228 -34.014,-34.013 0,-1.241 0.071,-2.466 0.201,-3.673 C -67.893,-0.004 -67.96,0 -68.027,0 c -10.129,0 -18.34,-8.211 -18.34,-18.341 0,-10.129 8.211,-18.34 18.34,-18.34 4.518,0 8.652,1.637 11.849,4.346 5.121,-6.626 13.142,-10.898 22.165,-10.898 9.022,0 17.043,4.272 22.165,10.898 3.196,-2.709 7.33,-4.346 11.848,-4.346 10.129,0 18.34,8.211 18.34,18.34 C 18.34,-8.211 10.129,0 0,0" /></g><g
           transform="translate(380.9238,418.4023)"
           id="g352"><path
             id="path354"
             style="fill:#85be40;fill-opacity:1;fill-rule:nonzero;stroke:none"
             d="M 0,0 C -0.063,0 -0.126,-0.004 -0.189,-0.005 -0.067,1.132 0,2.286 0,3.456 c 0,17.697 -14.346,32.043 -32.043,32.043 -17.697,0 -32.043,-14.346 -32.043,-32.043 0,-1.17 0.066,-2.324 0.188,-3.461 -0.063,0.001 -0.125,0.005 -0.188,0.005 -9.543,0 -17.279,-7.736 -17.279,-17.278 0,-9.543 7.736,-17.278 17.279,-17.278 4.256,0 8.15,1.542 11.162,4.094 4.825,-6.243 12.381,-10.267 20.881,-10.267 8.5,0 16.056,4.024 20.881,10.267 3.011,-2.552 6.906,-4.094 11.162,-4.094 9.542,0 17.278,7.735 17.278,17.278 C 17.278,-7.736 9.542,0 0,0" /></g><g
           transform="translate(674.2254,388.0393)"
           id="g356"><path
             id="path358"
             style="fill:#85be40;fill-opacity:1;fill-rule:nonzero;stroke:none"
             d="M 0,0 C 0.057,0 0.114,-0.004 0.171,-0.004 0.06,1.027 0,2.074 0,3.135 c 0,16.053 13.014,29.067 29.067,29.067 16.053,0 29.067,-13.014 29.067,-29.067 0,-1.061 -0.061,-2.108 -0.172,-3.139 0.058,0 0.114,0.004 0.172,0.004 8.656,0 15.673,-7.017 15.673,-15.673 0,-8.656 -7.017,-15.673 -15.673,-15.673 -3.861,0 -7.394,1.398 -10.126,3.713 -4.377,-5.662 -11.231,-9.312 -18.941,-9.312 -7.711,0 -14.565,3.65 -18.942,9.312 C 7.394,-29.948 3.861,-31.346 0,-31.346 c -8.656,0 -15.673,7.017 -15.673,15.673 C -15.673,-7.017 -8.656,0 0,0" /></g><g
           transform="translate(668.0798,387.2061)"
           id="g360"><path
             id="path362"
             style="fill:#6b8c40;fill-opacity:1;fill-rule:nonzero;stroke:none"
             d="M 0,0 C 0.035,0 0.069,-0.002 0.104,-0.003 0.037,0.624 0,1.261 0,1.906 c 0,9.758 7.911,17.669 17.67,17.669 9.758,0 17.669,-7.911 17.669,-17.669 0,-0.645 -0.037,-1.282 -0.104,-1.909 C 35.27,-0.002 35.304,0 35.339,0 c 5.262,0 9.528,-4.266 9.528,-9.528 0,-5.262 -4.266,-9.527 -9.528,-9.527 -2.347,0 -4.494,0.85 -6.155,2.257 -2.661,-3.442 -6.827,-5.661 -11.514,-5.661 -4.688,0 -8.854,2.219 -11.515,5.661 -1.66,-1.407 -3.808,-2.257 -6.155,-2.257 -5.262,0 -9.528,4.265 -9.528,9.527 C -9.528,-4.266 -5.262,0 0,0" /></g><path
           id="path364"
           style="fill:#603912;fill-opacity:1;fill-rule:nonzero;stroke:none"
           d="m 697.385,307.393 h 7.254 v 51.864 h -7.254 z" /><path
           id="path366"
           style="fill:#754c29;fill-opacity:1;fill-rule:nonzero;stroke:none"
           d="m 699.665,307.393 h 7.254 v 51.864 h -7.254 z" /><g
           transform="translate(670.0317,384.4989)"
           id="g368"><path
             id="path370"
             style="fill:#85be40;fill-opacity:1;fill-rule:nonzero;stroke:none"
             d="M 0,0 C 0.031,0 0.061,-0.002 0.091,-0.002 0.032,0.549 0,1.109 0,1.676 c 0,8.582 6.957,15.539 15.54,15.539 8.582,0 15.539,-6.957 15.539,-15.539 0,-0.567 -0.032,-1.127 -0.091,-1.678 0.03,0 0.061,0.002 0.091,0.002 4.628,0 8.38,-3.751 8.38,-8.379 0,-4.628 -3.752,-8.38 -8.38,-8.38 -2.064,0 -3.952,0.748 -5.413,1.986 -2.34,-3.027 -6.004,-4.979 -10.126,-4.979 -4.123,0 -7.787,1.952 -10.127,4.979 -1.46,-1.238 -3.349,-1.986 -5.413,-1.986 -4.628,0 -8.379,3.752 -8.379,8.38 C -8.379,-3.751 -4.628,0 0,0" /></g><g
           transform="translate(695.5175,377.0012)"
           id="g372"><path
             id="path374"
             style="fill:#6b8c40;fill-opacity:1;fill-rule:nonzero;stroke:none"
             d="M 0,0 C 0.041,0 0.081,-0.003 0.122,-0.003 0.043,0.731 0,1.476 0,2.23 c 0,11.422 9.26,20.682 20.682,20.682 11.422,0 20.681,-9.26 20.681,-20.682 0,-0.754 -0.043,-1.499 -0.122,-2.233 0.041,0 0.081,0.003 0.122,0.003 6.159,0 11.152,-4.993 11.152,-11.152 0,-6.159 -4.993,-11.152 -11.152,-11.152 -2.747,0 -5.261,0.996 -7.204,2.643 -3.114,-4.029 -7.991,-6.626 -13.477,-6.626 -5.487,0 -10.363,2.597 -13.478,6.626 -1.943,-1.647 -4.457,-2.643 -7.204,-2.643 -6.159,0 -11.152,4.993 -11.152,11.152 C -11.152,-4.993 -6.159,0 0,0" /></g><g
           transform="translate(698.5593,375.4786)"
           id="g376"><path
             id="path378"
             style="fill:#85be40;fill-opacity:1;fill-rule:nonzero;stroke:none"
             d="M 0,0 C 0.039,0 0.076,-0.003 0.115,-0.003 0.041,0.689 0,1.39 0,2.101 c 0,10.761 8.723,19.484 19.484,19.484 10.76,0 19.483,-8.723 19.483,-19.484 0,-0.711 -0.04,-1.412 -0.115,-2.104 0.039,0 0.077,0.003 0.115,0.003 5.802,0 10.506,-4.704 10.506,-10.506 0,-5.802 -4.704,-10.506 -10.506,-10.506 -2.588,0 -4.956,0.938 -6.787,2.49 -2.934,-3.796 -7.528,-6.243 -12.696,-6.243 -5.169,0 -9.763,2.447 -12.697,6.243 -1.831,-1.552 -4.199,-2.49 -6.787,-2.49 -5.802,0 -10.506,4.704 -10.506,10.506 C -10.506,-4.704 -5.802,0 0,0" /></g><g
           transform="translate(742.6476,405.5903)"
           id="g380"><path
             id="path382"
             style="fill:#85be40;fill-opacity:1;fill-rule:nonzero;stroke:none"
             d="M 0,0 C 0.07,0 0.139,-0.005 0.209,-0.005 0.074,1.251 0,2.525 0,3.817 0,23.364 15.846,39.21 35.393,39.21 c 19.546,0 35.392,-15.846 35.392,-35.393 0,-1.292 -0.073,-2.566 -0.208,-3.822 0.069,0 0.138,0.005 0.208,0.005 10.54,0 19.085,-8.544 19.085,-19.084 0,-10.54 -8.545,-19.084 -19.085,-19.084 -4.701,0 -9.003,1.703 -12.329,4.521 -5.329,-6.894 -13.675,-11.339 -23.063,-11.339 -9.389,0 -17.735,4.445 -23.064,11.339 C 9.003,-36.465 4.701,-38.168 0,-38.168 c -10.54,0 -19.084,8.544 -19.084,19.084 C -19.084,-8.544 -10.54,0 0,0" /></g><g
           transform="translate(735.1646,404.5757)"
           id="g384"><path
             id="path386"
             style="fill:#6b8c40;fill-opacity:1;fill-rule:nonzero;stroke:none"
             d="M 0,0 C 0.042,0 0.084,-0.003 0.127,-0.003 0.045,0.76 0,1.535 0,2.32 c 0,11.883 9.633,21.515 21.515,21.515 11.882,0 21.515,-9.632 21.515,-21.515 0,-0.785 -0.045,-1.56 -0.127,-2.323 0.043,0 0.084,0.003 0.127,0.003 6.407,0 11.601,-5.194 11.601,-11.601 0,-6.407 -5.194,-11.602 -11.601,-11.602 -2.858,0 -5.473,1.036 -7.495,2.749 -3.239,-4.191 -8.313,-6.893 -14.02,-6.893 -5.707,0 -10.781,2.702 -14.02,6.893 -2.022,-1.713 -4.637,-2.749 -7.495,-2.749 -6.407,0 -11.601,5.195 -11.601,11.602 C -11.601,-5.194 -6.407,0 0,0" /></g><path
           id="path388"
           style="fill:#754c29;fill-opacity:1;fill-rule:nonzero;stroke:none"
           d="m 770.848,307.393 h 8.832 v 63.152 h -8.832 z" /><path
           id="path390"
           style="fill:#603912;fill-opacity:1;fill-rule:nonzero;stroke:none"
           d="m 773.624,307.393 h 8.832 v 63.152 h -8.832 z" /><g
           transform="translate(737.5412,401.2793)"
           id="g392"><path
             id="path394"
             style="fill:#85be40;fill-opacity:1;fill-rule:nonzero;stroke:none"
             d="M 0,0 C 0.037,0 0.074,-0.002 0.112,-0.003 0.039,0.669 0,1.35 0,2.041 c 0,10.45 8.471,18.921 18.922,18.921 10.45,0 18.921,-8.471 18.921,-18.921 0,-0.691 -0.039,-1.372 -0.111,-2.044 0.037,0.001 0.074,0.003 0.111,0.003 5.635,0 10.203,-4.568 10.203,-10.203 0,-5.635 -4.568,-10.203 -10.203,-10.203 -2.513,0 -4.813,0.911 -6.591,2.418 -2.849,-3.686 -7.311,-6.062 -12.33,-6.062 -5.02,0 -9.482,2.376 -12.331,6.062 -1.778,-1.507 -4.078,-2.418 -6.591,-2.418 -5.635,0 -10.203,4.568 -10.203,10.203 C -10.203,-4.568 -5.635,0 0,0" /></g><g
           transform="translate(768.5735,392.1499)"
           id="g396"><path
             id="path398"
             style="fill:#6b8c40;fill-opacity:1;fill-rule:nonzero;stroke:none"
             d="M 0,0 C 0.05,0 0.099,-0.003 0.148,-0.004 0.052,0.89 0,1.797 0,2.716 c 0,13.908 11.275,25.182 25.182,25.182 13.908,0 25.183,-11.274 25.183,-25.182 0,-0.919 -0.053,-1.826 -0.149,-2.72 0.05,0.001 0.099,0.004 0.149,0.004 7.499,0 13.579,-6.079 13.579,-13.579 0,-7.499 -6.08,-13.579 -13.579,-13.579 -3.345,0 -6.406,1.212 -8.772,3.218 -3.792,-4.906 -9.731,-8.068 -16.411,-8.068 -6.68,0 -12.618,3.162 -16.41,8.068 -2.366,-2.006 -5.427,-3.218 -8.772,-3.218 -7.499,0 -13.579,6.08 -13.579,13.579 C -13.579,-6.079 -7.499,0 0,0" /></g><g
           transform="translate(772.2772,390.2959)"
           id="g400"><path
             id="path402"
             style="fill:#85be40;fill-opacity:1;fill-rule:nonzero;stroke:none"
             d="M 0,0 C 0.047,0 0.093,-0.003 0.14,-0.004 0.049,0.838 0,1.693 0,2.559 c 0,13.102 10.622,23.723 23.724,23.723 13.102,0 23.724,-10.621 23.724,-23.723 0,-0.866 -0.05,-1.721 -0.14,-2.563 0.047,0.001 0.093,0.004 0.14,0.004 7.065,0 12.792,-5.727 12.792,-12.792 0,-7.065 -5.727,-12.793 -12.792,-12.793 -3.152,0 -6.035,1.142 -8.264,3.032 -3.573,-4.622 -9.167,-7.601 -15.46,-7.601 -6.293,0 -11.888,2.979 -15.46,7.601 -2.229,-1.89 -5.113,-3.032 -8.264,-3.032 -7.065,0 -12.792,5.728 -12.792,12.793 C -12.792,-5.727 -7.065,0 0,0" /></g><g
           transform="translate(732.8053,295.7608)"
           id="g404"><path
             id="path406"
             style="fill:#6b8c40;fill-opacity:1;fill-rule:nonzero;stroke:none"
             d="M 0,0 C 0.141,0.162 0.284,0.323 0.412,0.495 0.561,0.326 0.715,0.162 0.873,0 h 53.122 c 0,6.441 -5.222,11.663 -11.663,11.663 -2.14,0 -4.139,-0.586 -5.862,-1.591 0.509,1.069 0.802,2.261 0.802,3.525 0,4.54 -3.681,8.221 -8.221,8.221 -3.023,0 -5.657,-1.636 -7.086,-4.066 -2.512,3.458 -6.586,5.708 -11.188,5.708 -6.546,0 -12.025,-4.551 -13.456,-10.661 -1.066,0.506 -2.255,0.798 -3.514,0.798 -4.541,0 -8.222,-3.681 -8.222,-8.222 0,-2.057 0.761,-3.933 2.01,-5.375 z" /></g><g
           transform="translate(729.0108,295.7608)"
           id="g408"><path
             id="path410"
             style="fill:#85be40;fill-opacity:1;fill-rule:nonzero;stroke:none"
             d="M 0,0 C 0.141,0.162 0.284,0.323 0.412,0.495 0.561,0.326 0.715,0.162 0.873,0 h 53.122 c 0,6.441 -5.222,11.663 -11.663,11.663 -2.14,0 -4.138,-0.586 -5.862,-1.591 0.509,1.069 0.802,2.261 0.802,3.525 0,4.54 -3.681,8.221 -8.221,8.221 -3.023,0 -5.657,-1.636 -7.086,-4.066 -2.512,3.458 -6.586,5.708 -11.188,5.708 -6.545,0 -12.025,-4.551 -13.455,-10.661 -1.067,0.506 -2.256,0.798 -3.515,0.798 -4.541,0 -8.222,-3.681 -8.222,-8.222 0,-2.057 0.761,-3.933 2.01,-5.375 z" /></g><g
           transform="translate(725.9096,295.7608)"
           id="g412"><path
             id="path414"
             style="fill:#6b8c40;fill-opacity:1;fill-rule:nonzero;stroke:none"
             d="M 0,0 C 0.087,0.101 0.176,0.2 0.256,0.308 0.349,0.203 0.444,0.1 0.542,0 h 33.005 c 0,4.002 -3.244,7.246 -7.246,7.246 -1.33,0 -2.571,-0.364 -3.642,-0.988 0.316,0.664 0.498,1.405 0.498,2.19 0,2.821 -2.286,5.108 -5.107,5.108 -1.879,0 -3.515,-1.017 -4.403,-2.527 -1.561,2.149 -4.092,3.547 -6.951,3.547 -4.067,0 -7.471,-2.828 -8.36,-6.624 -0.663,0.315 -1.401,0.496 -2.184,0.496 -2.821,0 -5.108,-2.287 -5.108,-5.108 0,-1.278 0.473,-2.444 1.249,-3.34 z" /></g><g
           transform="translate(723.5521,295.7608)"
           id="g416"><path
             id="path418"
             style="fill:#85be40;fill-opacity:1;fill-rule:nonzero;stroke:none"
             d="M 0,0 C 0.088,0.101 0.177,0.2 0.256,0.308 0.349,0.203 0.445,0.1 0.542,0 h 33.005 c 0,4.002 -3.244,7.246 -7.246,7.246 -1.33,0 -2.571,-0.364 -3.642,-0.988 0.316,0.664 0.499,1.405 0.499,2.19 0,2.821 -2.287,5.108 -5.108,5.108 -1.878,0 -3.515,-1.017 -4.403,-2.527 -1.561,2.149 -4.092,3.547 -6.951,3.547 -4.067,0 -7.471,-2.828 -8.36,-6.624 -0.663,0.315 -1.401,0.496 -2.184,0.496 -2.821,0 -5.108,-2.287 -5.108,-5.108 0,-1.278 0.473,-2.444 1.249,-3.34 z" /></g><g
           transform="translate(526.0639,295.4513)"
           id="g420"><path
             id="path422"
             style="fill:#6b8c40;fill-opacity:1;fill-rule:nonzero;stroke:none"
             d="M 0,0 C 0.062,0.072 0.125,0.142 0.182,0.219 0.247,0.144 0.315,0.071 0.385,0 h 23.422 c 0,2.84 -2.303,5.143 -5.143,5.143 -0.943,0 -1.824,-0.259 -2.584,-0.702 0.224,0.471 0.354,0.997 0.354,1.554 0,2.002 -1.623,3.625 -3.625,3.625 -1.333,0 -2.495,-0.722 -3.124,-1.793 -1.108,1.525 -2.904,2.517 -4.933,2.517 -2.886,0 -5.302,-2.007 -5.933,-4.701 -0.47,0.224 -0.994,0.352 -1.55,0.352 -2.002,0 -3.625,-1.623 -3.625,-3.625 0,-0.907 0.336,-1.734 0.887,-2.37 z" /></g><g
           transform="translate(524.3909,295.4513)"
           id="g424"><path
             id="path426"
             style="fill:#85be40;fill-opacity:1;fill-rule:nonzero;stroke:none"
             d="M 0,0 C 0.062,0.072 0.125,0.142 0.182,0.219 0.247,0.144 0.315,0.071 0.385,0 h 23.422 c 0,2.84 -2.302,5.143 -5.143,5.143 -0.943,0 -1.824,-0.259 -2.584,-0.702 0.224,0.471 0.354,0.997 0.354,1.554 0,2.002 -1.623,3.625 -3.625,3.625 -1.333,0 -2.494,-0.722 -3.124,-1.793 -1.108,1.525 -2.904,2.517 -4.933,2.517 -2.886,0 -5.302,-2.007 -5.933,-4.701 -0.47,0.224 -0.994,0.352 -1.55,0.352 -2.002,0 -3.624,-1.623 -3.624,-3.625 0,-0.907 0.335,-1.734 0.886,-2.37 z" /></g><g
           transform="translate(523.0235,295.4513)"
           id="g428"><path
             id="path430"
             style="fill:#6b8c40;fill-opacity:1;fill-rule:nonzero;stroke:none"
             d="M 0,0 C 0.039,0.044 0.078,0.088 0.113,0.136 0.154,0.089 0.196,0.044 0.239,0 h 14.552 c 0,1.765 -1.43,3.195 -3.195,3.195 -0.586,0 -1.133,-0.16 -1.605,-0.436 0.139,0.293 0.219,0.62 0.219,0.966 0,1.244 -1.008,2.252 -2.252,2.252 C 7.13,5.977 6.409,5.529 6.017,4.863 5.329,5.81 4.213,6.427 2.952,6.427 1.159,6.427 -0.342,5.18 -0.734,3.506 -1.026,3.645 -1.352,3.725 -1.696,3.725 -2.94,3.725 -3.949,2.716 -3.949,1.473 -3.949,0.909 -3.74,0.395 -3.398,0 Z" /></g><g
           transform="translate(521.9841,295.4513)"
           id="g432"><path
             id="path434"
             style="fill:#85be40;fill-opacity:1;fill-rule:nonzero;stroke:none"
             d="M 0,0 C 0.039,0.044 0.078,0.088 0.113,0.136 0.154,0.089 0.196,0.044 0.239,0 h 14.552 c 0,1.765 -1.43,3.195 -3.195,3.195 -0.586,0 -1.133,-0.16 -1.605,-0.436 0.139,0.293 0.219,0.62 0.219,0.966 0,1.244 -1.008,2.252 -2.252,2.252 C 7.13,5.977 6.409,5.529 6.017,4.863 5.329,5.81 4.213,6.427 2.952,6.427 1.159,6.427 -0.342,5.18 -0.734,3.506 -1.026,3.645 -1.352,3.725 -1.697,3.725 -2.94,3.725 -3.949,2.716 -3.949,1.473 -3.949,0.909 -3.74,0.395 -3.398,0 Z" /></g><g
           transform="translate(294.3735,302.4552)"
           id="g436"><path
             id="path438"
             style="fill:#6b8c40;fill-opacity:1;fill-rule:nonzero;stroke:none"
             d="M 0,0 C 0.09,0.104 0.181,0.206 0.263,0.317 0.359,0.209 0.457,0.103 0.558,0 h 33.947 c 0,4.116 -3.337,7.453 -7.453,7.453 -1.367,0 -2.644,-0.374 -3.746,-1.017 0.325,0.684 0.513,1.446 0.513,2.253 0,2.902 -2.352,5.254 -5.254,5.254 -1.932,0 -3.615,-1.046 -4.528,-2.599 -1.606,2.21 -4.209,3.648 -7.15,3.648 -4.183,0 -7.684,-2.908 -8.599,-6.813 -0.681,0.324 -1.441,0.51 -2.246,0.51 -2.901,0 -5.254,-2.352 -5.254,-5.254 0,-1.314 0.487,-2.513 1.285,-3.435 z" /></g><g
           transform="translate(291.9486,302.4552)"
           id="g440"><path
             id="path442"
             style="fill:#85be40;fill-opacity:1;fill-rule:nonzero;stroke:none"
             d="M 0,0 C 0.09,0.104 0.182,0.206 0.263,0.317 0.359,0.209 0.457,0.103 0.558,0 h 33.947 c 0,4.116 -3.336,7.453 -7.453,7.453 -1.367,0 -2.644,-0.374 -3.746,-1.017 0.325,0.684 0.513,1.446 0.513,2.253 0,2.902 -2.352,5.254 -5.254,5.254 -1.932,0 -3.615,-1.046 -4.528,-2.599 -1.606,2.21 -4.209,3.648 -7.15,3.648 -4.183,0 -7.684,-2.908 -8.599,-6.813 -0.681,0.324 -1.441,0.51 -2.246,0.51 -2.901,0 -5.254,-2.352 -5.254,-5.254 0,-1.314 0.487,-2.513 1.285,-3.435 z" /></g><g
           transform="translate(289.9668,302.4552)"
           id="g444"><path
             id="path446"
             style="fill:#6b8c40;fill-opacity:1;fill-rule:nonzero;stroke:none"
             d="M 0,0 C 0.056,0.065 0.113,0.128 0.164,0.197 0.223,0.13 0.284,0.064 0.346,0 h 21.092 c 0,2.558 -2.073,4.631 -4.63,4.631 -0.85,0 -1.643,-0.233 -2.328,-0.632 0.202,0.425 0.319,0.898 0.319,1.4 0,1.802 -1.462,3.264 -3.264,3.264 -1.201,0 -2.247,-0.65 -2.814,-1.615 -0.997,1.373 -2.615,2.267 -4.442,2.267 -2.599,0 -4.774,-1.807 -5.343,-4.233 -0.423,0.201 -0.895,0.317 -1.395,0.317 -1.803,0 -3.264,-1.462 -3.264,-3.265 0,-0.816 0.302,-1.561 0.798,-2.134 z" /></g><g
           transform="translate(288.4602,302.4552)"
           id="g448"><path
             id="path450"
             style="fill:#85be40;fill-opacity:1;fill-rule:nonzero;stroke:none"
             d="M 0,0 C 0.056,0.065 0.113,0.128 0.164,0.197 0.223,0.13 0.284,0.064 0.346,0 h 21.092 c 0,2.558 -2.073,4.631 -4.63,4.631 -0.85,0 -1.643,-0.233 -2.328,-0.632 0.202,0.425 0.319,0.898 0.319,1.4 0,1.802 -1.462,3.264 -3.264,3.264 -1.201,0 -2.247,-0.65 -2.814,-1.615 -0.997,1.373 -2.615,2.267 -4.442,2.267 -2.599,0 -4.774,-1.807 -5.342,-4.233 -0.424,0.201 -0.896,0.317 -1.396,0.317 -1.803,0 -3.264,-1.462 -3.264,-3.265 0,-0.816 0.302,-1.561 0.798,-2.134 z" /></g><g
           transform="translate(438.8768,295.7608)"
           id="g452"><path
             id="path454"
             style="fill:#6b8c40;fill-opacity:1;fill-rule:nonzero;stroke:none"
             d="M 0,0 C 0.088,0.101 0.177,0.201 0.256,0.308 0.349,0.203 0.445,0.101 0.543,0 h 33.06 c 0,4.009 -3.25,7.258 -7.258,7.258 -1.332,0 -2.576,-0.364 -3.648,-0.99 0.316,0.666 0.499,1.408 0.499,2.194 0,2.826 -2.291,5.116 -5.116,5.116 -1.882,0 -3.521,-1.018 -4.41,-2.53 C 12.106,13.2 9.571,14.6 6.707,14.6 2.633,14.6 -0.777,11.768 -1.667,7.965 -2.331,8.28 -3.071,8.462 -3.854,8.462 -6.68,8.462 -8.971,6.171 -8.971,3.345 -8.971,2.065 -8.497,0.897 -7.72,0 Z" /></g><g
           transform="translate(436.5153,295.7608)"
           id="g456"><path
             id="path458"
             style="fill:#85be40;fill-opacity:1;fill-rule:nonzero;stroke:none"
             d="M 0,0 C 0.088,0.101 0.177,0.201 0.257,0.308 0.349,0.203 0.445,0.101 0.543,0 h 33.06 c 0,4.009 -3.25,7.258 -7.258,7.258 -1.332,0 -2.576,-0.364 -3.648,-0.99 0.316,0.666 0.499,1.408 0.499,2.194 0,2.826 -2.291,5.116 -5.116,5.116 -1.882,0 -3.521,-1.018 -4.41,-2.53 C 12.106,13.2 9.571,14.6 6.707,14.6 2.633,14.6 -0.776,11.768 -1.667,7.965 -2.331,8.28 -3.07,8.462 -3.854,8.462 -6.68,8.462 -8.971,6.171 -8.971,3.345 -8.971,2.065 -8.497,0.897 -7.72,0 Z" /></g><g
           transform="translate(434.5853,295.7608)"
           id="g460"><path
             id="path462"
             style="fill:#6b8c40;fill-opacity:1;fill-rule:nonzero;stroke:none"
             d="M 0,0 C 0.054,0.063 0.11,0.125 0.159,0.192 0.217,0.126 0.277,0.062 0.337,0 h 20.541 c 0,2.491 -2.019,4.51 -4.51,4.51 -0.827,0 -1.6,-0.227 -2.266,-0.616 0.196,0.414 0.31,0.875 0.31,1.363 0,1.756 -1.423,3.179 -3.179,3.179 -1.169,0 -2.187,-0.632 -2.74,-1.572 -0.971,1.337 -2.546,2.207 -4.326,2.207 -2.531,0 -4.65,-1.76 -5.203,-4.122 -0.412,0.196 -0.872,0.308 -1.359,0.308 -1.755,0 -3.179,-1.423 -3.179,-3.179 0,-0.795 0.295,-1.52 0.778,-2.078 z" /></g><g
           transform="translate(433.1181,295.7608)"
           id="g464"><path
             id="path466"
             style="fill:#85be40;fill-opacity:1;fill-rule:nonzero;stroke:none"
             d="M 0,0 C 0.054,0.063 0.11,0.125 0.159,0.192 0.217,0.126 0.277,0.062 0.337,0 h 20.541 c 0,2.491 -2.019,4.51 -4.51,4.51 -0.827,0 -1.6,-0.227 -2.266,-0.616 0.196,0.414 0.31,0.875 0.31,1.363 0,1.756 -1.423,3.179 -3.179,3.179 -1.169,0 -2.188,-0.632 -2.74,-1.572 -0.971,1.337 -2.547,2.207 -4.326,2.207 -2.531,0 -4.649,-1.76 -5.203,-4.122 -0.412,0.196 -0.872,0.308 -1.359,0.308 -1.755,0 -3.179,-1.423 -3.179,-3.179 0,-0.795 0.295,-1.52 0.778,-2.078 z" /></g><g
           transform="translate(391.086,295.894)"
           id="g468"><path
             id="path470"
             style="fill:#6b8c40;fill-opacity:1;fill-rule:nonzero;stroke:none"
             d="M 0,0 C 0.111,0.128 0.224,0.255 0.326,0.391 0.443,0.258 0.565,0.128 0.689,0 h 41.972 c 0,5.089 -4.126,9.215 -9.215,9.215 -1.691,0 -3.27,-0.463 -4.632,-1.257 0.403,0.845 0.634,1.786 0.634,2.785 0,3.587 -2.908,6.495 -6.495,6.495 -2.388,0 -4.47,-1.292 -5.598,-3.213 -1.986,2.733 -5.204,4.511 -8.84,4.511 -5.172,0 -9.501,-3.596 -10.631,-8.424 -0.843,0.4 -1.782,0.631 -2.777,0.631 -3.588,0 -6.496,-2.908 -6.496,-6.496 0,-1.625 0.601,-3.108 1.588,-4.247 z" /></g><g
           transform="translate(388.088,295.894)"
           id="g472"><path
             id="path474"
             style="fill:#85be40;fill-opacity:1;fill-rule:nonzero;stroke:none"
             d="M 0,0 C 0.111,0.128 0.224,0.255 0.326,0.391 0.444,0.258 0.565,0.128 0.689,0 h 41.972 c 0,5.089 -4.126,9.215 -9.215,9.215 -1.691,0 -3.27,-0.463 -4.632,-1.257 0.403,0.845 0.635,1.786 0.635,2.785 0,3.587 -2.909,6.495 -6.496,6.495 -2.388,0 -4.47,-1.292 -5.598,-3.213 -1.986,2.733 -5.204,4.511 -8.84,4.511 -5.172,0 -9.501,-3.596 -10.631,-8.424 -0.843,0.4 -1.782,0.631 -2.777,0.631 -3.588,0 -6.496,-2.908 -6.496,-6.496 0,-1.625 0.601,-3.108 1.588,-4.247 z" /></g><g
           transform="translate(385.6378,295.894)"
           id="g476"><path
             id="path478"
             style="fill:#6b8c40;fill-opacity:1;fill-rule:nonzero;stroke:none"
             d="M 0,0 C 0.069,0.08 0.139,0.158 0.202,0.243 0.276,0.16 0.351,0.079 0.428,0 h 26.077 c 0,3.162 -2.563,5.725 -5.725,5.725 -1.05,0 -2.031,-0.287 -2.877,-0.781 0.249,0.525 0.394,1.11 0.394,1.731 0,2.228 -1.807,4.035 -4.036,4.035 -1.484,0 -2.777,-0.803 -3.478,-1.996 -1.234,1.698 -3.234,2.802 -5.493,2.802 -3.213,0 -5.902,-2.234 -6.605,-5.233 -0.524,0.248 -1.107,0.392 -1.725,0.392 -2.229,0 -4.036,-1.807 -4.036,-4.036 0,-1.01 0.374,-1.931 0.987,-2.639 z" /></g><g
           transform="translate(383.7752,295.894)"
           id="g480"><path
             id="path482"
             style="fill:#85be40;fill-opacity:1;fill-rule:nonzero;stroke:none"
             d="M 0,0 C 0.069,0.08 0.139,0.158 0.202,0.243 0.276,0.16 0.351,0.079 0.428,0 h 26.077 c 0,3.162 -2.563,5.725 -5.725,5.725 -1.05,0 -2.031,-0.287 -2.877,-0.781 0.25,0.525 0.394,1.11 0.394,1.731 0,2.228 -1.807,4.035 -4.036,4.035 -1.484,0 -2.777,-0.803 -3.478,-1.996 -1.234,1.698 -3.234,2.802 -5.493,2.802 -3.213,0 -5.903,-2.234 -6.605,-5.233 -0.524,0.248 -1.107,0.392 -1.725,0.392 -2.229,0 -4.036,-1.807 -4.036,-4.036 0,-1.01 0.374,-1.931 0.987,-2.639 z" /></g><g
           transform="translate(595.8787,304.6208)"
           id="g484"><path
             id="path486"
             style="fill:#6b8c40;fill-opacity:1;fill-rule:nonzero;stroke:none"
             d="M 0,0 C 0.141,0.162 0.284,0.323 0.412,0.495 0.561,0.326 0.715,0.162 0.873,0 h 53.122 c 0,6.441 -5.222,11.663 -11.663,11.663 -2.14,0 -4.138,-0.586 -5.862,-1.591 0.509,1.069 0.802,2.261 0.802,3.525 0,4.54 -3.681,8.221 -8.221,8.221 -3.023,0 -5.657,-1.636 -7.086,-4.066 -2.512,3.458 -6.586,5.708 -11.188,5.708 -6.546,0 -12.025,-4.551 -13.455,-10.661 -1.067,0.506 -2.256,0.798 -3.515,0.798 -4.541,0 -8.222,-3.681 -8.222,-8.221 0,-2.058 0.761,-3.934 2.01,-5.376 z" /></g><g
           transform="translate(592.0842,304.6208)"
           id="g488"><path
             id="path490"
             style="fill:#85be40;fill-opacity:1;fill-rule:nonzero;stroke:none"
             d="M 0,0 C 0.141,0.162 0.284,0.323 0.412,0.495 0.561,0.326 0.715,0.162 0.873,0 h 53.122 c 0,6.441 -5.222,11.663 -11.663,11.663 -2.14,0 -4.138,-0.586 -5.862,-1.591 0.509,1.069 0.802,2.261 0.802,3.525 0,4.54 -3.681,8.221 -8.221,8.221 -3.023,0 -5.657,-1.636 -7.086,-4.066 -2.512,3.458 -6.586,5.708 -11.188,5.708 -6.546,0 -12.025,-4.551 -13.455,-10.661 -1.067,0.506 -2.256,0.798 -3.515,0.798 -4.541,0 -8.222,-3.681 -8.222,-8.221 0,-2.058 0.761,-3.934 2.01,-5.376 z" /></g><g
           transform="translate(588.983,304.6208)"
           id="g492"><path
             id="path494"
             style="fill:#6b8c40;fill-opacity:1;fill-rule:nonzero;stroke:none"
             d="M 0,0 C 0.088,0.101 0.177,0.2 0.256,0.308 0.349,0.203 0.445,0.1 0.542,0 h 33.005 c 0,4.002 -3.244,7.246 -7.246,7.246 -1.33,0 -2.571,-0.364 -3.642,-0.988 0.316,0.664 0.499,1.405 0.499,2.19 0,2.821 -2.287,5.108 -5.108,5.108 -1.878,0 -3.515,-1.017 -4.403,-2.527 -1.561,2.149 -4.092,3.547 -6.951,3.547 -4.067,0 -7.471,-2.828 -8.36,-6.624 -0.663,0.315 -1.401,0.496 -2.184,0.496 -2.821,0 -5.108,-2.287 -5.108,-5.108 0,-1.278 0.473,-2.444 1.249,-3.34 z" /></g><g
           transform="translate(586.6255,304.6208)"
           id="g496"><path
             id="path498"
             style="fill:#85be40;fill-opacity:1;fill-rule:nonzero;stroke:none"
             d="M 0,0 C 0.087,0.101 0.177,0.2 0.256,0.308 0.349,0.203 0.445,0.1 0.542,0 h 33.005 c 0,4.002 -3.244,7.246 -7.246,7.246 -1.33,0 -2.571,-0.364 -3.642,-0.988 0.316,0.664 0.499,1.405 0.499,2.19 0,2.821 -2.287,5.108 -5.109,5.108 -1.877,0 -3.514,-1.017 -4.402,-2.527 -1.561,2.149 -4.092,3.547 -6.951,3.547 -4.067,0 -7.471,-2.828 -8.36,-6.624 -0.663,0.315 -1.401,0.496 -2.184,0.496 -2.821,0 -5.108,-2.287 -5.108,-5.108 0,-1.278 0.473,-2.444 1.249,-3.34 z" /></g><g
           transform="translate(652.7801,304.6208)"
           id="g500"><path
             id="path502"
             style="fill:#6b8c40;fill-opacity:1;fill-rule:nonzero;stroke:none"
             d="M 0,0 C -0.082,0.094 -0.165,0.187 -0.239,0.287 -0.325,0.189 -0.415,0.094 -0.506,0 h -30.788 c 0,3.733 3.027,6.76 6.76,6.76 1.24,0 2.398,-0.34 3.397,-0.923 -0.295,0.62 -0.465,1.311 -0.465,2.043 0,2.632 2.133,4.765 4.765,4.765 1.752,0 3.279,-0.948 4.106,-2.357 1.457,2.005 3.818,3.309 6.485,3.309 3.793,0 6.969,-2.638 7.798,-6.179 C 2.171,7.711 2.859,7.88 3.589,7.88 6.221,7.88 8.354,5.747 8.354,3.115 8.354,1.923 7.913,0.836 7.189,0 Z" /></g><g
           transform="translate(654.9792,304.6208)"
           id="g504"><path
             id="path506"
             style="fill:#85be40;fill-opacity:1;fill-rule:nonzero;stroke:none"
             d="M 0,0 C -0.082,0.094 -0.165,0.187 -0.239,0.287 -0.325,0.189 -0.415,0.094 -0.506,0 h -30.788 c 0,3.733 3.027,6.76 6.76,6.76 1.24,0 2.398,-0.34 3.397,-0.923 -0.295,0.62 -0.465,1.311 -0.465,2.043 0,2.632 2.133,4.765 4.765,4.765 1.752,0 3.279,-0.948 4.106,-2.357 1.457,2.005 3.818,3.309 6.485,3.309 3.794,0 6.969,-2.638 7.798,-6.179 C 2.171,7.711 2.859,7.88 3.589,7.88 6.221,7.88 8.354,5.747 8.354,3.115 8.354,1.923 7.913,0.836 7.189,0 Z" /></g><g
           transform="translate(656.7766,304.6208)"
           id="g508"><path
             id="path510"
             style="fill:#6b8c40;fill-opacity:1;fill-rule:nonzero;stroke:none"
             d="M 0,0 C -0.051,0.058 -0.102,0.116 -0.148,0.178 -0.202,0.118 -0.258,0.058 -0.314,0 h -19.129 c 0,2.32 1.88,4.2 4.2,4.2 0.77,0 1.49,-0.211 2.111,-0.573 -0.184,0.385 -0.289,0.814 -0.289,1.269 0,1.635 1.325,2.961 2.96,2.961 1.089,0 2.037,-0.59 2.551,-1.465 0.905,1.245 2.372,2.056 4.029,2.056 2.357,0 4.33,-1.639 4.845,-3.839 0.385,0.182 0.813,0.287 1.266,0.287 1.635,0 2.96,-1.325 2.96,-2.96 C 5.19,1.195 4.916,0.519 4.467,0 Z" /></g><g
           transform="translate(658.1429,304.6208)"
           id="g512"><path
             id="path514"
             style="fill:#85be40;fill-opacity:1;fill-rule:nonzero;stroke:none"
             d="M 0,0 C -0.051,0.058 -0.102,0.116 -0.148,0.178 -0.202,0.118 -0.258,0.058 -0.314,0 h -19.129 c 0,2.32 1.88,4.2 4.2,4.2 0.77,0 1.49,-0.211 2.111,-0.573 -0.184,0.385 -0.289,0.814 -0.289,1.269 0,1.635 1.325,2.961 2.96,2.961 1.089,0 2.037,-0.59 2.552,-1.465 0.904,1.245 2.371,2.056 4.028,2.056 2.357,0 4.33,-1.639 4.845,-3.839 0.385,0.182 0.813,0.287 1.266,0.287 1.635,0 2.961,-1.325 2.961,-2.96 C 5.191,1.195 4.917,0.519 4.467,0 Z" /></g></g></g></g></svg>