<?xml version="1.0" encoding="UTF-8" standalone="no"?>
<svg
   xmlns:dc="http://purl.org/dc/elements/1.1/"
   xmlns:cc="http://creativecommons.org/ns#"
   xmlns:rdf="http://www.w3.org/1999/02/22-rdf-syntax-ns#"
   xmlns:svg="http://www.w3.org/2000/svg"
   xmlns="http://www.w3.org/2000/svg"
   viewBox="0 0 666.66669 666.66669"
   height="666.66669"
   width="666.66669"
   xml:space="preserve"
   id="svg2"
   version="1.1"><metadata
     id="metadata8"><rdf:RDF><cc:Work
         rdf:about=""><dc:format>image/svg+xml</dc:format><dc:type
           rdf:resource="http://purl.org/dc/dcmitype/StillImage" /></cc:Work></rdf:RDF></metadata><defs
     id="defs6"><clipPath
       id="clipPath18"
       clipPathUnits="userSpaceOnUse"><path
         id="path16"
         d="M 0,500 H 500 V 0 H 0 Z" /></clipPath></defs><g
     transform="matrix(1.3333333,0,0,-1.3333333,0,666.66667)"
     id="g10"><g
       id="g12"><g
         clip-path="url(#clipPath18)"
         id="g14"><g
           transform="translate(385.6492,6.3333)"
           id="g20"><path
             id="path22"
             style="fill:#4bb232;fill-opacity:1;fill-rule:nonzero;stroke:none"
             d="m 0,0 h -273.637 c -4.213,0 -7.629,3.416 -7.629,7.629 v 15.14 c 0,4.213 3.416,7.629 7.629,7.629 L 0,30.398 c 4.213,0 7.629,-3.416 7.629,-7.629 V 7.629 C 7.629,3.416 4.213,0 0,0" /></g><g
           transform="translate(254.8076,407.6009)"
           id="g24"><path
             id="path26"
             style="fill:#3d2f5e;fill-opacity:1;fill-rule:nonzero;stroke:none"
             d="m 0,0 h -1.57 -3.364 -1.702 -3.249 -2.069 V 63.629 H 0 Z" /></g><g
           transform="translate(249.0447,437.2379)"
           id="g28"><path
             id="path30"
             style="fill:#a2ba60;fill-opacity:1;fill-rule:nonzero;stroke:none"
             d="M 0,0 -0.321,-0.031 -6.045,5.461 V 2.477 l 3.977,-3.991 -3.977,-3.969 v -3.152 l 5.724,5.638 0.069,-0.03 0.574,0.03 5.633,-5.09 v 2.966 l -3.607,3.607 3.607,3.607 v 2.966 l -5.614,-5.09 z" /></g><g
           transform="translate(243,412.5237)"
           id="g32"><path
             id="path34"
             style="fill:#a2ba60;fill-opacity:1;fill-rule:nonzero;stroke:none"
             d="m 0,0 v -3.029 l 1.992,-1.89 4.048,-3.739 4.312,3.736 1.648,1.385 v 2.966 L 6.97,-4.923 6.05,-5.692 5.27,-4.925 Z" /></g><g
           transform="translate(243,427.7269)"
           id="g36"><path
             id="path38"
             style="fill:#a2ba60;fill-opacity:1;fill-rule:nonzero;stroke:none"
             d="M 0,0 V -3.185 L 3.987,-7.175 0,-11.16 v -3.198 l 6.278,5.7 5.722,-5.121 v 2.966 L 8.362,-7.175 12,-3.537 v 2.966 L 6.171,-5.692 Z" /></g><g
           transform="translate(249.0447,452.3797)"
           id="g40"><path
             id="path42"
             style="fill:#a2ba60;fill-opacity:1;fill-rule:nonzero;stroke:none"
             d="m 0,0 -0.42,-0.129 -5.625,5.392 v -2.86 l 3.958,-4.016 -3.958,-3.929 V -8.48 l 5.545,5.384 0.208,-0.129 0.692,0.129 5.555,-4.991 v 2.966 L 2.447,-1.613 5.955,1.896 V 4.862 L 0.44,-0.129 Z" /></g><g
           transform="translate(249.1712,467.3239)"
           id="g44"><path
             id="path46"
             style="fill:#a2ba60;fill-opacity:1;fill-rule:nonzero;stroke:none"
             d="M 0,0 -6.171,-5.756 V -8.52 l 6.198,5.554 5.802,-5.121 v 2.966 z" /></g><g
           transform="translate(249.1966,487.5772)"
           id="g48"><path
             id="path50"
             style="fill:#362b4e;fill-opacity:1;fill-rule:nonzero;stroke:none"
             d="m 0,0 c -0.114,0.057 -0.235,0.089 -0.366,0.089 -0.131,0 -0.252,-0.032 -0.366,-0.089 -2.205,-0.893 -6.93,-9.061 -6.773,-15.019 0.166,-6.309 6.968,-6.184 6.968,-6.184 0,0 7.144,-0.125 7.31,6.184 C 6.93,-9.061 2.205,-0.893 0,0" /></g><g
           transform="translate(257.6527,473.6296)"
           id="g52"><path
             id="path54"
             style="fill:#2b212b;fill-opacity:1;fill-rule:nonzero;stroke:none"
             d="m 0,0 c -0.429,1.12 -1.686,1.68 -2.808,1.256 -0.936,-0.355 -3.816,-1.275 -5.891,-1.275 -0.101,0 -0.197,-0.016 -0.295,-0.03 -0.097,0.014 -0.193,0.03 -0.294,0.03 -2.075,0 -4.955,0.92 -5.891,1.275 -1.124,0.426 -2.379,-0.136 -2.807,-1.256 -0.428,-1.12 0.134,-2.375 1.256,-2.802 0.167,-0.064 4.13,-1.56 7.442,-1.56 0.101,0 0.197,0.016 0.294,0.029 0.098,-0.013 0.194,-0.029 0.295,-0.029 3.312,0 7.275,1.496 7.442,1.56 C -0.135,-2.375 0.428,-1.12 0,0" /></g><g
           transform="translate(261.0085,396.1866)"
           id="g56"><path
             id="path58"
             style="fill:#362b4e;fill-opacity:1;fill-rule:nonzero;stroke:none"
             d="m 0,0 h -24.356 c -1.664,0 -3.013,1.349 -3.013,3.014 v 5.98 c 0,1.665 1.349,3.014 3.013,3.014 H 0 c 1.664,0 3.014,-1.349 3.014,-3.014 V 3.014 C 3.014,1.349 1.664,0 0,0" /></g><g
           transform="translate(239,377)"
           id="g60"><path
             id="path62"
             style="fill:#d8edda;fill-opacity:1;fill-rule:nonzero;stroke:none"
             d="M 0,0 V -38.258 L -9.796,-48.22 0,-59.509 V -271 H 8 V 0 Z" /></g><g
           transform="translate(259,338.7419)"
           id="g64"><path
             id="path66"
             style="fill:#d8edda;fill-opacity:1;fill-rule:nonzero;stroke:none"
             d="m 0,0 v 38.258 h -8 v -271 h 8 v 211.491 l 9.796,11.289 z" /></g><g
           transform="translate(241,338.7419)"
           id="g68"><path
             id="path70"
             style="fill:#769ea7;fill-opacity:1;fill-rule:nonzero;stroke:none"
             d="M 0,0 -9.796,-9.962 0,-21.251 v -211.491 h 8 v 271 H 0 Z" /></g><g
           transform="translate(257,338.7419)"
           id="g72"><path
             id="path74"
             style="fill:#7ba7af;fill-opacity:1;fill-rule:nonzero;stroke:none"
             d="m 0,0 v 38.258 h -8 v -271 h 8 v 211.491 l 9.796,11.289 z" /></g><g
           transform="translate(236.8769,333)"
           id="g76"><path
             id="path78"
             style="fill:#c1e2d4;fill-opacity:1;fill-rule:nonzero;stroke:none"
             d="M 0,0 H 11.954 L 5.977,-5.977 Z" /></g><g
           transform="translate(248.8307,333)"
           id="g80"><path
             id="path82"
             style="fill:#c1e2d4;fill-opacity:1;fill-rule:nonzero;stroke:none"
             d="M 0,0 H 11.86 L 5.852,-5.977 Z" /></g><g
           transform="translate(242.8538,327)"
           id="g84"><path
             id="path86"
             style="fill:#c1e2d4;fill-opacity:1;fill-rule:nonzero;stroke:none"
             d="M 0,0 H 11.829 L 5.946,-5.292 Z" /></g><g
           transform="translate(249,397.4319)"
           id="g88"><path
             id="path90"
             style="fill:#432e4c;fill-opacity:1;fill-rule:nonzero;stroke:none"
             d="m 0,0 -10.708,0.005 c -7.145,4.276 -15.51,9.296 -16.689,10.174 -2.116,1.578 -4.068,-4.135 -5.437,-5.504 -1.37,-1.37 -22.393,-25.457 -20.899,-26.577 1.494,-1.121 9.411,2.961 10.657,2.463 1.245,-0.498 6.884,1.854 9.001,1.729 2.117,-0.124 6.991,-0.629 6.991,0.367 0,0.996 -0.44,11.203 0.781,10.83 1.221,-0.374 8.824,-9.714 10.816,-10.212 1.993,-0.498 5.487,-0.5 5.487,-0.5 v -11.58 l 10,7.097 z" /></g><g
           transform="translate(249,397.4319)"
           id="g92"><path
             id="path94"
             style="fill:#3c2e49;fill-opacity:1;fill-rule:nonzero;stroke:none"
             d="m 0,0 10.61,0.005 c 7.144,4.276 15.46,9.296 16.639,10.174 2.117,1.578 4.044,-4.135 5.413,-5.504 1.37,-1.37 22.381,-25.457 20.887,-26.577 -1.495,-1.121 -9.418,2.961 -10.663,2.463 -1.245,-0.498 -6.888,1.854 -9.005,1.729 -2.117,-0.124 -6.993,-0.629 -6.993,0.367 0,0.996 0.44,11.203 -0.781,10.83 -1.221,-0.374 -8.726,-9.714 -10.718,-10.212 -1.993,-0.498 -5.389,-0.5 -5.389,-0.5 l 0,-11.58 -10,7.097 z" /></g><g
           transform="translate(249,397.4319)"
           id="g96"><path
             id="path98"
             style="fill:#f2cd55;fill-opacity:1;fill-rule:nonzero;stroke:none"
             d="M 0,0 -6.309,-11.954 0,-25.734 Z" /></g><g
           transform="translate(249,397.4319)"
           id="g100"><path
             id="path102"
             style="fill:#f2bc25;fill-opacity:1;fill-rule:nonzero;stroke:none"
             d="M 0,0 6.516,-11.954 0,-25.734 Z" /></g><g
           transform="translate(229.0054,115)"
           id="g104"><path
             id="path106"
             style="fill:#89737b;fill-opacity:1;fill-rule:nonzero;stroke:none"
             d="m 0,0 -80.171,-6.317 c -14.714,0 -26.834,-9.653 -26.834,-21.523 v -34.651 -21.103 l 127,-0.195 0,83.789 z" /></g><g
           transform="translate(376,52.5088)"
           id="g108"><path
             id="path110"
             style="fill:#a08b93;fill-opacity:1;fill-rule:nonzero;stroke:none"
             d="m 0,0 v 34.651 c 0,11.87 -11.506,21.523 -26.22,21.523 l -81.627,6.317 H -127 V -21.297 L 0,-21.496 Z" /></g><g
           transform="translate(126.5448,29.9799)"
           id="g112"><path
             id="path114"
             style="fill:#39a02a;fill-opacity:1;fill-rule:nonzero;stroke:none"
             d="m 0,0 c 0,0 -0.111,1.782 -0.373,4.424 -0.29,2.639 -0.737,6.143 -1.466,9.508 -0.354,1.687 -1.02,3.276 -1.491,4.714 -0.441,1.455 -0.796,2.767 -1.191,3.848 -0.21,0.532 -0.411,1.013 -0.637,1.428 -0.226,0.404 -0.451,0.779 -0.681,1.052 -0.215,0.308 -0.435,0.502 -0.584,0.663 -0.156,0.162 -0.238,0.248 -0.238,0.248 l 0.106,0.384 c -0.011,-0.035 0.508,0.138 1.414,-0.048 0.914,-0.149 2.188,-0.796 3.263,-1.945 0.534,-0.569 1.06,-1.236 1.47,-1.988 C 0.04,21.544 0.372,20.719 0.641,19.855 1.147,18.111 1.177,16.208 1.317,14.381 1.581,10.711 1.361,7.1 1.046,4.418 0.763,1.735 0.398,-0.027 0.398,-0.027 Z" /></g><g
           transform="translate(126.2059,30.1185)"
           id="g116"><path
             id="path118"
             style="fill:#39a02a;fill-opacity:1;fill-rule:nonzero;stroke:none"
             d="m 0,0 c 0,0 -0.396,1.648 -1.081,4.071 -0.713,2.415 -1.722,5.61 -2.99,8.604 -0.624,1.505 -1.547,2.845 -2.241,4.079 -0.67,1.255 -1.231,2.389 -1.793,3.308 -0.294,0.443 -0.569,0.849 -0.857,1.196 -0.289,0.325 -0.569,0.635 -0.836,0.852 -0.257,0.255 -0.502,0.391 -0.669,0.524 -0.173,0.128 -0.266,0.196 -0.266,0.196 l 0.033,0.397 c 0,0 0.115,0.034 0.331,0.099 0.22,0.056 0.562,0.161 0.995,0.148 0.45,0.031 0.978,-0.05 1.593,-0.208 0.59,-0.191 1.248,-0.471 1.875,-0.897 0.616,-0.424 1.252,-0.939 1.792,-1.565 0.56,-0.613 1.057,-1.321 1.459,-2.087 0.8,-1.549 1.163,-3.335 1.605,-5.025 C -0.177,10.293 0.193,6.872 0.319,4.308 0.474,1.747 0.397,0.039 0.397,0.039 Z" /></g><g
           transform="translate(125.738,30.1206)"
           id="g120"><path
             id="path122"
             style="fill:#358727;fill-opacity:1;fill-rule:nonzero;stroke:none"
             d="m 0,0 c 0,0 -0.402,1.938 -1.084,4.807 -0.732,2.857 -1.634,6.677 -2.935,10.306 -0.629,1.821 -1.509,3.528 -2.206,5.092 -0.658,1.584 -1.21,3.039 -1.803,4.157 -0.306,0.544 -0.585,1.059 -0.9,1.433 -0.149,0.205 -0.298,0.399 -0.461,0.529 -0.154,0.155 -0.301,0.327 -0.459,0.415 -0.303,0.243 -0.589,0.394 -0.8,0.484 -0.216,0.107 -0.332,0.164 -0.332,0.164 l -0.025,0.397 c 0,0 0.131,0.048 0.375,0.137 0.256,0.104 0.643,0.204 1.17,0.193 0.521,0.011 1.187,-0.108 1.857,-0.403 0.689,-0.282 1.379,-0.737 2.028,-1.314 0.331,-0.287 0.617,-0.61 0.947,-0.942 0.275,-0.351 0.564,-0.718 0.84,-1.102 0.544,-0.765 1.01,-1.628 1.389,-2.538 0.731,-1.841 1.061,-3.892 1.458,-5.874 C -0.19,11.96 0.22,7.995 0.321,5.006 0.468,2.024 0.397,0.034 0.397,0.034 Z" /></g><g
           transform="translate(127.2589,29.7585)"
           id="g124"><path
             id="path126"
             style="fill:#379922;fill-opacity:1;fill-rule:nonzero;stroke:none"
             d="m 0,0 c 0,0 0.07,0.13 0.201,0.373 0.073,0.238 0.11,0.536 0.09,1.028 -0.081,0.951 -0.508,2.32 -1.258,3.853 -1.519,3.048 -4.148,6.905 -7.437,9.937 -1.63,1.527 -3.503,2.713 -5.195,3.606 -0.829,0.508 -1.648,0.846 -2.415,1.218 -0.78,0.291 -1.533,0.54 -2.252,0.658 -1.435,0.258 -2.768,0.124 -3.743,-0.075 -0.493,-0.081 -0.864,-0.229 -1.148,-0.282 -0.281,-0.067 -0.431,-0.103 -0.431,-0.103 l -0.239,0.319 c 0,0 0.095,0.125 0.273,0.359 0.19,0.224 0.446,0.601 0.874,0.969 0.427,0.373 0.973,0.823 1.719,1.182 0.728,0.375 1.646,0.699 2.683,0.818 1.041,0.159 2.182,0.086 3.345,-0.146 1.144,-0.252 2.323,-0.676 3.38,-1.305 1.077,-0.616 2.044,-1.419 2.943,-2.286 0.882,-0.883 1.753,-1.776 2.523,-2.743 C -2.94,13.583 -0.658,9.268 0.357,5.765 0.87,4.022 1.126,2.493 0.996,1.385 0.933,0.849 0.759,0.36 0.596,0.103 0.422,-0.11 0.329,-0.224 0.329,-0.224 Z" /></g><g
           transform="translate(126.8635,30.264)"
           id="g128"><path
             id="path130"
             style="fill:#358727;fill-opacity:1;fill-rule:nonzero;stroke:none"
             d="m 0,0 c 0,0 -0.576,2.341 -1.123,5.918 -0.595,3.574 -1.064,8.388 -1.043,13.299 -0.016,1.229 0.041,2.463 0.092,3.691 0.047,1.229 0.193,2.447 0.43,3.617 0.288,1.165 0.636,2.29 1.147,3.31 0.486,1.027 1.033,1.976 1.718,2.764 0.631,0.807 1.393,1.44 2.11,1.9 0.732,0.443 1.423,0.736 2.024,0.832 0.577,0.155 1.05,0.126 1.359,0.111 0.304,-0.018 0.465,-0.027 0.465,-0.027 l 0.073,-0.392 c 0,0 -0.126,-0.089 -0.363,-0.257 C 6.659,34.6 6.32,34.402 5.977,34.045 5.613,33.739 5.248,33.288 4.895,32.773 4.541,32.25 4.214,31.628 3.918,30.9 3.758,30.55 3.618,30.165 3.501,29.745 3.342,29.357 3.231,28.914 3.107,28.47 2.882,27.556 2.646,26.591 2.401,25.594 1.902,23.568 1.304,21.321 1.014,19.002 0.387,14.365 0.341,9.599 0.292,6.026 0.292,2.45 0.395,0.055 0.395,0.055 Z" /></g><g
           transform="translate(126.4953,28.722)"
           id="g132"><path
             id="path134"
             style="fill:#39a02a;fill-opacity:1;fill-rule:nonzero;stroke:none"
             d="m 0,0 c 0,0 -0.385,2.285 -0.671,5.75 -0.337,3.465 -0.469,8.107 -0.205,12.807 0.156,2.344 0.247,4.744 0.786,6.963 0.585,2.2 1.547,4.211 2.736,5.745 0.568,0.775 1.235,1.415 1.88,1.901 0.642,0.484 1.272,0.833 1.832,0.999 0.539,0.205 0.988,0.256 1.294,0.265 0.294,0.015 0.451,0.023 0.451,0.023 l 0.118,-0.38 c 0,0 -0.108,-0.102 -0.312,-0.292 C 7.708,33.603 7.428,33.349 7.142,32.97 6.984,32.809 6.84,32.596 6.698,32.353 6.543,32.13 6.381,31.898 6.25,31.601 5.948,31.06 5.675,30.412 5.412,29.681 5.142,28.963 4.905,28.138 4.658,27.268 4.425,26.379 4.18,25.441 3.927,24.472 3.379,22.521 2.695,20.383 2.288,18.167 1.43,13.742 1.054,9.179 0.748,5.756 0.489,2.327 0.398,0.024 0.398,0.024 Z" /></g><g
           transform="translate(126.8927,28.9768)"
           id="g136"><path
             id="path138"
             style="fill:#39a02a;fill-opacity:1;fill-rule:nonzero;stroke:none"
             d="m 0,0 c 0,0 -0.055,2.178 0.156,5.44 0.163,3.27 0.697,7.605 1.644,11.941 0.498,2.156 0.939,4.385 1.817,6.367 0.912,1.956 2.18,3.67 3.599,4.866 1.405,1.215 2.974,1.827 4.067,1.892 1.089,0.111 1.674,-0.167 1.666,-0.12 l 0.037,-0.397 C 12.999,29.96 12.456,29.736 11.78,29.167 11.436,28.911 11.073,28.526 10.705,28.088 10.332,27.648 9.97,27.113 9.602,26.5 9.415,26.199 9.229,25.88 9.063,25.518 8.866,25.19 8.687,24.822 8.511,24.439 8.153,23.667 7.776,22.852 7.386,22.009 6.56,20.32 5.581,18.462 4.859,16.482 3.375,12.532 2.351,8.358 1.56,5.23 0.815,2.09 0.397,-0.035 0.397,-0.035 Z" /></g><g
           transform="translate(127.4397,28.9748)"
           id="g140"><path
             id="path142"
             style="fill:#358727;fill-opacity:1;fill-rule:nonzero;stroke:none"
             d="m 0,0 c 0,0 -0.047,2.551 0.158,6.372 0.157,3.827 0.666,8.91 1.54,13.999 0.461,2.536 0.865,5.13 1.681,7.485 0.428,1.167 0.915,2.284 1.531,3.288 0.569,1.019 1.243,1.941 1.944,2.735 0.704,0.8 1.491,1.445 2.264,1.918 0.792,0.462 1.571,0.718 2.221,0.801 0.665,0.067 1.153,0.023 1.483,-0.093 0.315,-0.086 0.483,-0.131 0.483,-0.131 l -0.028,-0.398 c 0,0 -0.149,-0.059 -0.428,-0.169 C 12.717,35.744 12.554,35.703 12.378,35.614 12.215,35.509 12.027,35.388 11.817,35.252 11.429,34.951 11.021,34.548 10.625,34.02 10.44,33.742 10.242,33.447 10.035,33.135 9.856,32.793 9.667,32.434 9.471,32.059 9.113,31.276 8.735,30.422 8.381,29.468 8.031,28.505 7.662,27.489 7.28,26.438 6.864,25.371 6.434,24.268 5.997,23.147 5.555,22.013 5.179,20.829 4.801,19.64 3.36,14.859 2.357,9.906 1.566,6.195 0.824,2.474 0.397,-0.031 0.397,-0.031 Z" /></g><g
           transform="translate(125.7286,28.2103)"
           id="g144"><path
             id="path146"
             style="fill:#379922;fill-opacity:1;fill-rule:nonzero;stroke:none"
             d="m 0,0 c 0,0 -0.105,0.149 -0.302,0.429 -0.171,0.312 -0.368,0.899 -0.433,1.551 -0.074,0.67 -0.051,1.48 0.062,2.391 0.127,0.905 0.312,1.923 0.606,3.001 1.105,4.35 3.65,9.792 7.194,14.697 0.895,1.223 1.844,2.416 2.871,3.543 0.995,1.153 2.153,2.165 3.358,3.053 1.27,0.813 2.567,1.551 3.977,1.919 0.671,0.239 1.394,0.331 2.06,0.457 0.686,0.064 1.364,0.068 1.997,0.043 1.286,-0.109 2.422,-0.449 3.326,-0.892 0.442,-0.251 0.863,-0.451 1.21,-0.697 0.327,-0.268 0.627,-0.515 0.898,-0.738 0.53,-0.44 0.831,-0.907 1.066,-1.175 0.219,-0.284 0.336,-0.435 0.336,-0.435 l -0.257,-0.304 c 0,0 -0.176,0.064 -0.506,0.186 -0.337,0.1 -0.766,0.346 -1.365,0.498 -0.59,0.172 -1.282,0.365 -2.072,0.44 -0.782,0.102 -1.646,0.053 -2.544,-0.069 -0.9,-0.194 -1.845,-0.451 -2.81,-0.928 C 17.705,26.534 16.723,25.896 15.701,25.241 14.696,24.53 13.621,23.805 12.59,22.926 11.536,22.083 10.565,21.079 9.603,20.062 5.841,15.884 2.918,10.863 1.28,6.926 0.467,4.953 0.016,3.212 -0.03,2.006 -0.05,1.383 0.012,0.988 0.107,0.678 0.259,0.371 0.34,0.208 0.34,0.208 Z" /></g><g
           transform="translate(125.7476,28.9795)"
           id="g148"><path
             id="path150"
             style="fill:#358727;fill-opacity:1;fill-rule:nonzero;stroke:none"
             d="m 0,0 c 0,0 -0.031,2.315 -0.077,5.786 -0.129,3.465 -0.227,8.077 -0.728,12.611 -0.23,2.267 -0.724,4.489 -1.064,6.527 -0.295,2.048 -0.518,3.926 -0.825,5.479 -0.087,0.382 -0.17,0.749 -0.249,1.097 -0.103,0.334 -0.201,0.651 -0.293,0.948 -0.209,0.579 -0.446,1.052 -0.681,1.443 -0.258,0.347 -0.493,0.656 -0.7,0.806 -0.203,0.183 -0.312,0.281 -0.312,0.281 l 0.099,0.386 c 0,0 0.161,-0.005 0.464,-0.016 0.329,0.012 0.764,-0.104 1.338,-0.338 0.54,-0.261 1.149,-0.684 1.734,-1.275 0.556,-0.597 1.114,-1.331 1.572,-2.181 C 0.74,30.711 1.157,29.763 1.477,28.749 1.831,27.74 2.074,26.653 2.237,25.534 2.533,23.281 2.412,20.885 2.38,18.531 2.265,13.816 1.856,9.169 1.34,5.707 0.872,2.242 0.396,-0.04 0.396,-0.04 Z" /></g><g
           transform="translate(126.7373,30.7574)"
           id="g152"><path
             id="path154"
             style="fill:#39a02a;fill-opacity:1;fill-rule:nonzero;stroke:none"
             d="m 0,0 c 0,0 -1.131,1.375 -2.886,3.358 -1.776,1.964 -4.185,4.536 -6.741,6.829 -1.271,1.157 -2.739,2.051 -3.961,2.937 -1.206,0.918 -2.259,1.771 -3.21,2.415 -0.48,0.308 -0.924,0.58 -1.349,0.785 -0.419,0.195 -0.819,0.369 -1.165,0.457 -0.354,0.125 -0.646,0.154 -0.86,0.199 -0.22,0.042 -0.337,0.064 -0.337,0.064 l -0.137,0.374 c 0.011,-0.034 0.333,0.406 1.175,0.783 0.827,0.411 2.233,0.631 3.772,0.33 0.764,-0.148 1.579,-0.379 2.351,-0.747 0.797,-0.339 1.547,-0.812 2.27,-1.353 1.429,-1.115 2.565,-2.636 3.746,-4.031 2.358,-2.813 4.288,-5.862 5.6,-8.215 1.337,-2.336 2.07,-3.975 2.07,-3.975 z" /></g><g
           transform="translate(126.3813,30.6728)"
           id="g156"><path
             id="path158"
             style="fill:#39a02a;fill-opacity:1;fill-rule:nonzero;stroke:none"
             d="m 0,0 c 0,0 -1.284,1.102 -3.255,2.662 -1.989,1.537 -4.674,3.531 -7.451,5.212 -1.384,0.853 -2.915,1.396 -4.198,1.99 -1.276,0.625 -2.392,1.216 -3.385,1.633 -0.497,0.187 -0.958,0.357 -1.393,0.471 -0.425,0.095 -0.832,0.185 -1.175,0.207 -0.358,0.057 -0.635,0.026 -0.848,0.038 -0.216,0.003 -0.33,0.004 -0.33,0.004 l -0.204,0.343 c 0,0 0.074,0.095 0.212,0.272 0.145,0.174 0.362,0.458 0.721,0.699 0.347,0.287 0.822,0.527 1.413,0.757 0.589,0.189 1.285,0.346 2.04,0.366 0.747,0.016 1.562,-0.03 2.365,-0.22 0.81,-0.171 1.627,-0.452 2.399,-0.837 1.552,-0.787 2.891,-2.02 4.236,-3.129 C -6.16,8.227 -3.86,5.675 -2.259,3.673 -0.637,1.692 0.299,0.264 0.299,0.264 Z" /></g><g
           transform="translate(125.9999,30.4035)"
           id="g160"><path
             id="path162"
             style="fill:#358727;fill-opacity:1;fill-rule:nonzero;stroke:none"
             d="m 0,0 c 0,0 -1.458,1.332 -3.687,3.255 -2.263,1.882 -5.225,4.445 -8.399,6.619 -1.573,1.105 -3.283,1.971 -4.761,2.83 -1.458,0.897 -2.755,1.751 -3.887,2.31 -0.567,0.263 -1.093,0.518 -1.567,0.638 -0.24,0.08 -0.474,0.149 -0.683,0.161 -0.215,0.037 -0.434,0.09 -0.614,0.07 -0.387,0.022 -0.708,-0.021 -0.931,-0.069 -0.238,-0.039 -0.365,-0.06 -0.365,-0.06 l -0.251,0.31 c 0,0 0.079,0.114 0.226,0.328 0.147,0.233 0.403,0.538 0.837,0.835 0.416,0.312 1.026,0.603 1.739,0.754 0.723,0.173 1.546,0.207 2.408,0.119 0.863,-0.081 1.751,-0.297 2.639,-0.61 0.887,-0.3 1.769,-0.727 2.607,-1.241 1.668,-1.062 3.133,-2.53 4.613,-3.901 2.934,-2.782 5.583,-5.75 7.412,-8.109 C -0.803,1.912 0.302,0.26 0.302,0.26 Z" /></g><g
           transform="translate(127.4464,30.9934)"
           id="g164"><path
             id="path166"
             style="fill:#379922;fill-opacity:1;fill-rule:nonzero;stroke:none"
             d="m 0,0 c 0,0 -0.019,0.146 -0.054,0.419 -0.08,0.234 -0.225,0.497 -0.529,0.884 -0.624,0.72 -1.769,1.579 -3.273,2.38 -3.013,1.578 -7.394,3.165 -11.83,3.705 -2.212,0.287 -4.422,0.158 -6.317,-0.099 -1.914,-0.191 -3.575,-0.539 -4.887,-1.181 -1.318,-0.62 -2.326,-1.497 -3.002,-2.224 -0.355,-0.351 -0.569,-0.687 -0.77,-0.894 -0.189,-0.218 -0.29,-0.334 -0.29,-0.334 l -0.38,0.12 c 0,0 0.005,0.157 0.013,0.45 0.024,0.293 0.012,0.748 0.148,1.295 0.13,0.553 0.315,1.234 0.713,1.959 0.377,0.727 0.937,1.521 1.711,2.219 0.756,0.73 1.726,1.333 2.805,1.817 1.075,0.459 2.278,0.797 3.501,0.901 1.231,0.124 2.483,0.037 3.716,-0.144 1.228,-0.203 2.455,-0.42 3.642,-0.755 4.764,-1.243 9.131,-3.403 12.001,-5.645 1.433,-1.111 2.534,-2.199 3.079,-3.17 C 0.26,1.232 0.406,0.736 0.424,0.431 0.407,0.156 0.398,0.01 0.398,0.01 Z" /></g><g
           transform="translate(127.2522,31.3045)"
           id="g168"><path
             id="path170"
             style="fill:#358727;fill-opacity:1;fill-rule:nonzero;stroke:none"
             d="m 0,0 c 0,0 -1.287,1.229 -3.087,3.202 -1.817,1.959 -4.114,4.688 -6.2,7.616 -1.032,1.468 -2.087,2.949 -2.86,4.488 -0.381,0.769 -0.693,1.552 -0.923,2.32 -0.12,0.382 -0.207,0.771 -0.305,1.135 -0.064,0.381 -0.127,0.746 -0.17,1.101 -0.16,1.432 0.105,2.714 0.561,3.451 0.116,0.184 0.227,0.34 0.319,0.472 0.115,0.121 0.22,0.215 0.304,0.289 0.164,0.145 0.252,0.222 0.252,0.222 l 0.149,-0.133 c 0,0 -0.041,-0.102 -0.118,-0.295 -0.037,-0.091 -0.083,-0.204 -0.137,-0.336 -0.029,-0.138 -0.062,-0.297 -0.099,-0.474 -0.053,-0.352 -0.076,-0.778 -0.016,-1.266 0.043,-0.485 0.186,-1.03 0.354,-1.618 0.193,-0.587 0.432,-1.218 0.721,-1.881 0.307,-0.656 0.62,-1.355 0.98,-2.073 0.687,-1.447 1.433,-3.026 2.33,-4.531 1.774,-3.022 3.853,-5.886 5.408,-8.034 1.578,-2.134 2.685,-3.52 2.685,-3.52 z" /></g><g
           transform="translate(376.3262,28.4413)"
           id="g172"><path
             id="path174"
             style="fill:#379922;fill-opacity:1;fill-rule:nonzero;stroke:none"
             d="m 0,0 c 0,0 0.126,0.175 0.363,0.504 0.082,0.171 0.103,0.38 0.184,0.606 0.014,0.266 0.052,0.577 0.024,0.926 -0.079,0.705 -0.256,1.563 -0.639,2.51 -0.354,0.952 -0.877,1.988 -1.51,3.08 -1.29,2.176 -3.061,4.562 -5.166,6.919 -2.122,2.342 -4.592,4.651 -7.28,6.614 -1.366,0.946 -2.736,1.884 -4.182,2.599 -1.424,0.758 -2.865,1.36 -4.246,1.928 -1.389,0.528 -2.735,1.018 -4.039,1.339 -0.65,0.193 -1.29,0.313 -1.916,0.393 -0.624,0.148 -1.231,0.177 -1.82,0.226 -1.173,0.073 -2.282,0.088 -3.255,-0.047 -0.998,-0.045 -1.837,-0.288 -2.574,-0.401 -0.721,-0.153 -1.271,-0.357 -1.674,-0.445 -0.401,-0.102 -0.615,-0.157 -0.615,-0.157 l -0.207,0.34 c 0,0 0.166,0.148 0.479,0.426 0.321,0.266 0.778,0.707 1.442,1.144 0.679,0.405 1.502,0.967 2.57,1.35 0.522,0.233 1.095,0.437 1.72,0.576 0.621,0.155 1.282,0.358 1.988,0.399 1.403,0.193 2.967,0.229 4.567,-0.015 1.625,-0.158 3.259,-0.663 4.889,-1.279 3.225,-1.349 6.161,-3.57 8.866,-5.889 C -6.66,18.922 -2.451,13.135 -0.314,8.272 0.22,7.058 0.647,5.914 0.912,4.856 1.208,3.812 1.3,2.839 1.276,2.04 1.256,1.639 1.168,1.276 1.104,0.968 0.965,0.653 0.851,0.372 0.731,0.199 0.454,-0.097 0.307,-0.254 0.307,-0.254 Z" /></g><g
           transform="translate(375.8488,27.3898)"
           id="g176"><path
             id="path178"
             style="fill:#39a02a;fill-opacity:1;fill-rule:nonzero;stroke:none"
             d="m 0,0 c 0,0 -0.385,2.285 -0.671,5.75 -0.337,3.465 -0.469,8.107 -0.205,12.807 0.156,2.344 0.247,4.744 0.787,6.963 0.584,2.2 1.546,4.212 2.735,5.745 0.568,0.775 1.235,1.415 1.88,1.902 0.642,0.483 1.272,0.832 1.832,0.998 0.539,0.205 0.988,0.256 1.294,0.265 0.294,0.015 0.451,0.023 0.451,0.023 l 0.118,-0.38 c 0,0 -0.108,-0.102 -0.312,-0.292 C 7.708,33.603 7.428,33.349 7.142,32.97 6.984,32.809 6.84,32.596 6.698,32.353 6.543,32.13 6.381,31.898 6.25,31.601 5.948,31.06 5.675,30.412 5.412,29.681 5.142,28.963 4.905,28.138 4.658,27.268 4.425,26.379 4.18,25.441 3.927,24.472 3.379,22.521 2.695,20.383 2.288,18.167 1.43,13.742 1.054,9.179 0.748,5.756 0.489,2.327 0.398,0.024 0.398,0.024 Z" /></g><g
           transform="translate(376.2462,27.6446)"
           id="g180"><path
             id="path182"
             style="fill:#39a02a;fill-opacity:1;fill-rule:nonzero;stroke:none"
             d="m 0,0 c 0,0 -0.055,2.178 0.156,5.44 0.163,3.27 0.697,7.605 1.644,11.941 0.498,2.156 0.939,4.385 1.817,6.367 0.912,1.956 2.18,3.67 3.599,4.866 1.404,1.215 2.974,1.827 4.067,1.892 1.089,0.111 1.674,-0.167 1.666,-0.12 l 0.037,-0.397 C 12.999,29.961 12.456,29.736 11.78,29.167 11.436,28.911 11.073,28.526 10.705,28.088 10.332,27.648 9.97,27.113 9.602,26.5 9.415,26.199 9.229,25.88 9.063,25.518 8.866,25.19 8.687,24.822 8.511,24.439 8.153,23.667 7.776,22.852 7.386,22.009 6.56,20.32 5.581,18.462 4.859,16.482 3.375,12.532 2.351,8.358 1.56,5.23 0.815,2.09 0.397,-0.035 0.397,-0.035 Z" /></g><g
           transform="translate(376.7932,27.6426)"
           id="g184"><path
             id="path186"
             style="fill:#358727;fill-opacity:1;fill-rule:nonzero;stroke:none"
             d="m 0,0 c 0,0 -0.047,2.551 0.158,6.372 0.157,3.827 0.666,8.91 1.54,13.999 0.461,2.536 0.865,5.13 1.681,7.485 0.428,1.167 0.915,2.284 1.531,3.288 0.569,1.019 1.243,1.941 1.944,2.735 0.704,0.8 1.491,1.445 2.264,1.918 0.792,0.462 1.571,0.718 2.221,0.801 0.665,0.067 1.153,0.023 1.483,-0.093 0.315,-0.086 0.483,-0.131 0.483,-0.131 l -0.028,-0.398 c 0,0 -0.149,-0.059 -0.428,-0.169 C 12.717,35.744 12.554,35.703 12.378,35.614 12.215,35.509 12.027,35.388 11.817,35.252 11.429,34.951 11.021,34.548 10.625,34.02 10.44,33.742 10.242,33.447 10.035,33.135 9.856,32.793 9.667,32.434 9.471,32.059 9.113,31.276 8.735,30.422 8.381,29.469 8.031,28.505 7.662,27.489 7.28,26.438 6.864,25.371 6.434,24.268 5.997,23.147 5.555,22.013 5.179,20.829 4.801,19.64 3.36,14.859 2.357,9.906 1.566,6.195 0.824,2.474 0.397,-0.031 0.397,-0.031 Z" /></g><g
           transform="translate(375.0821,26.8781)"
           id="g188"><path
             id="path190"
             style="fill:#379922;fill-opacity:1;fill-rule:nonzero;stroke:none"
             d="m 0,0 c 0,0 -0.105,0.149 -0.302,0.429 -0.171,0.312 -0.368,0.899 -0.433,1.551 -0.074,0.67 -0.051,1.48 0.062,2.391 0.127,0.905 0.312,1.923 0.606,3.001 1.105,4.35 3.65,9.792 7.194,14.697 0.895,1.223 1.844,2.416 2.871,3.543 0.995,1.153 2.153,2.165 3.358,3.054 1.27,0.812 2.567,1.55 3.977,1.918 0.671,0.239 1.394,0.331 2.06,0.457 0.686,0.064 1.364,0.068 1.997,0.043 1.286,-0.109 2.422,-0.449 3.326,-0.892 0.442,-0.251 0.863,-0.451 1.21,-0.697 0.327,-0.268 0.627,-0.515 0.899,-0.738 0.529,-0.44 0.83,-0.907 1.065,-1.175 0.219,-0.284 0.336,-0.435 0.336,-0.435 l -0.257,-0.304 c 0,0 -0.176,0.064 -0.506,0.186 -0.337,0.1 -0.766,0.346 -1.365,0.498 -0.59,0.173 -1.282,0.366 -2.072,0.44 -0.782,0.103 -1.646,0.053 -2.544,-0.069 -0.9,-0.194 -1.845,-0.451 -2.81,-0.928 C 17.705,26.534 16.723,25.896 15.701,25.241 14.696,24.53 13.621,23.805 12.59,22.926 11.536,22.083 10.565,21.079 9.603,20.062 5.841,15.884 2.918,10.863 1.28,6.926 0.467,4.953 0.016,3.212 -0.03,2.006 -0.05,1.383 0.012,0.988 0.107,0.678 0.259,0.371 0.34,0.208 0.34,0.208 Z" /></g><g
           transform="translate(375.1011,27.6474)"
           id="g192"><path
             id="path194"
             style="fill:#358727;fill-opacity:1;fill-rule:nonzero;stroke:none"
             d="m 0,0 c 0,0 -0.031,2.315 -0.077,5.786 -0.129,3.465 -0.227,8.077 -0.728,12.611 -0.23,2.267 -0.724,4.489 -1.064,6.527 -0.295,2.048 -0.518,3.926 -0.825,5.479 -0.087,0.382 -0.17,0.748 -0.249,1.097 -0.103,0.334 -0.201,0.651 -0.293,0.948 -0.209,0.579 -0.446,1.052 -0.681,1.443 -0.258,0.347 -0.493,0.656 -0.7,0.806 -0.203,0.183 -0.312,0.281 -0.312,0.281 l 0.099,0.386 c 0,0 0.161,-0.005 0.464,-0.016 0.329,0.012 0.764,-0.104 1.338,-0.338 0.54,-0.261 1.149,-0.684 1.734,-1.275 0.556,-0.598 1.114,-1.331 1.572,-2.181 C 0.74,30.711 1.157,29.763 1.476,28.749 1.831,27.74 2.074,26.653 2.237,25.534 2.533,23.281 2.412,20.885 2.38,18.53 2.265,13.816 1.856,9.169 1.34,5.706 0.872,2.242 0.396,-0.04 0.396,-0.04 Z" /></g><g
           transform="translate(129.7185,26.2649)"
           id="g196"><path
             id="path198"
             style="fill:#379922;fill-opacity:1;fill-rule:nonzero;stroke:none"
             d="m 0,0 c 0,0 -0.086,0.138 -0.221,0.424 -0.036,0.172 -0.093,0.408 -0.116,0.67 0.009,0.235 -0.006,0.52 0.03,0.822 0.12,1.216 0.63,2.845 1.396,4.717 1.51,3.766 4.269,8.409 7.622,12.692 0.825,1.084 1.725,2.114 2.613,3.145 0.913,1.011 1.862,1.978 2.91,2.796 1.04,0.817 2.164,1.508 3.315,2.022 0.564,0.27 1.171,0.468 1.724,0.683 0.611,0.136 1.16,0.314 1.745,0.378 0.578,0.078 1.123,0.138 1.672,0.084 0.533,-0.008 1.04,-0.068 1.509,-0.213 0.925,-0.23 1.687,-0.615 2.192,-1.042 0.545,-0.375 0.85,-0.787 1.055,-1.057 0.199,-0.266 0.305,-0.407 0.305,-0.407 L 27.49,25.412 c 0,0 -0.161,0.052 -0.463,0.15 -0.295,0.094 -0.698,0.261 -1.234,0.319 -0.255,0.057 -0.534,0.098 -0.847,0.075 C 24.644,25.965 24.333,25.984 23.989,25.9 23.325,25.85 22.593,25.578 21.823,25.265 20.278,24.614 18.584,23.377 16.771,21.981 14.93,20.617 12.896,19.058 11.102,17.216 7.475,13.567 4.369,9.332 2.359,6.002 1.362,4.331 0.691,2.85 0.386,1.79 0.308,1.526 0.285,1.291 0.238,1.082 0.229,0.899 0.222,0.743 0.217,0.617 0.296,0.328 0.361,0.168 0.361,0.168 Z" /></g><g
           transform="translate(292.1075,25.777)"
           id="g200"><path
             id="path202"
             style="fill:#379922;fill-opacity:1;fill-rule:nonzero;stroke:none"
             d="m 0,0 c 0,0 0.126,0.175 0.363,0.504 0.082,0.171 0.103,0.38 0.184,0.606 0.014,0.266 0.052,0.577 0.024,0.926 -0.079,0.705 -0.256,1.563 -0.639,2.51 -0.354,0.951 -0.877,1.988 -1.51,3.08 -1.29,2.176 -3.061,4.562 -5.166,6.919 -2.122,2.342 -4.592,4.651 -7.28,6.614 -1.366,0.946 -2.736,1.884 -4.182,2.599 -1.424,0.758 -2.865,1.36 -4.246,1.928 -1.389,0.528 -2.735,1.018 -4.039,1.339 -0.65,0.193 -1.29,0.313 -1.916,0.393 -0.624,0.148 -1.231,0.177 -1.82,0.226 -1.173,0.073 -2.282,0.088 -3.255,-0.047 -0.998,-0.045 -1.837,-0.288 -2.574,-0.401 -0.721,-0.153 -1.271,-0.357 -1.674,-0.445 -0.401,-0.102 -0.615,-0.157 -0.615,-0.157 l -0.207,0.34 c 0,0 0.166,0.148 0.479,0.426 0.321,0.266 0.778,0.707 1.442,1.144 0.679,0.405 1.502,0.967 2.57,1.35 0.522,0.233 1.095,0.437 1.72,0.576 0.621,0.155 1.282,0.358 1.988,0.399 1.403,0.193 2.967,0.229 4.567,-0.015 1.625,-0.158 3.259,-0.663 4.889,-1.279 3.225,-1.349 6.161,-3.57 8.866,-5.889 C -6.66,18.922 -2.451,13.135 -0.314,8.272 0.22,7.058 0.647,5.914 0.912,4.856 1.208,3.812 1.3,2.839 1.276,2.04 1.256,1.639 1.168,1.276 1.104,0.968 0.965,0.653 0.851,0.372 0.731,0.199 0.454,-0.097 0.307,-0.254 0.307,-0.254 Z" /></g><g
           transform="translate(291.63,24.7254)"
           id="g204"><path
             id="path206"
             style="fill:#39a02a;fill-opacity:1;fill-rule:nonzero;stroke:none"
             d="m 0,0 c 0,0 -0.385,2.285 -0.671,5.75 -0.337,3.465 -0.469,8.107 -0.205,12.807 0.156,2.344 0.247,4.744 0.787,6.963 0.584,2.2 1.546,4.212 2.735,5.745 0.568,0.775 1.235,1.415 1.88,1.902 0.642,0.483 1.272,0.832 1.832,0.998 0.539,0.205 0.988,0.256 1.294,0.265 0.294,0.015 0.451,0.023 0.451,0.023 l 0.118,-0.38 c 0,0 -0.108,-0.102 -0.312,-0.292 C 7.708,33.603 7.428,33.349 7.142,32.97 6.984,32.809 6.84,32.596 6.698,32.353 6.543,32.13 6.381,31.898 6.25,31.601 5.948,31.06 5.675,30.412 5.412,29.681 5.142,28.963 4.905,28.138 4.658,27.268 4.425,26.379 4.18,25.441 3.927,24.472 3.379,22.521 2.695,20.383 2.288,18.167 1.43,13.742 1.054,9.179 0.748,5.756 0.489,2.327 0.398,0.024 0.398,0.024 Z" /></g><g
           transform="translate(292.0275,24.9803)"
           id="g208"><path
             id="path210"
             style="fill:#39a02a;fill-opacity:1;fill-rule:nonzero;stroke:none"
             d="m 0,0 c 0,0 -0.055,2.178 0.156,5.44 0.163,3.27 0.697,7.605 1.644,11.941 0.498,2.156 0.939,4.385 1.817,6.367 0.912,1.956 2.18,3.67 3.599,4.866 1.404,1.215 2.974,1.827 4.067,1.892 1.089,0.111 1.674,-0.167 1.666,-0.12 l 0.037,-0.397 C 12.999,29.961 12.456,29.736 11.78,29.167 11.436,28.911 11.073,28.526 10.705,28.088 10.332,27.648 9.97,27.113 9.602,26.5 9.415,26.199 9.229,25.88 9.063,25.518 8.866,25.19 8.687,24.822 8.511,24.439 8.153,23.667 7.776,22.852 7.386,22.009 6.56,20.32 5.581,18.462 4.859,16.482 3.375,12.532 2.351,8.358 1.56,5.23 0.815,2.09 0.397,-0.035 0.397,-0.035 Z" /></g><g
           transform="translate(292.5745,24.9783)"
           id="g212"><path
             id="path214"
             style="fill:#358727;fill-opacity:1;fill-rule:nonzero;stroke:none"
             d="m 0,0 c 0,0 -0.047,2.551 0.158,6.372 0.157,3.827 0.666,8.91 1.54,13.999 0.461,2.536 0.865,5.13 1.681,7.485 0.428,1.167 0.915,2.284 1.531,3.288 0.569,1.019 1.243,1.941 1.944,2.735 0.704,0.8 1.491,1.445 2.264,1.918 0.792,0.462 1.571,0.718 2.221,0.801 0.665,0.067 1.153,0.023 1.483,-0.093 0.315,-0.086 0.483,-0.131 0.483,-0.131 l -0.028,-0.398 c 0,0 -0.149,-0.059 -0.428,-0.169 C 12.716,35.744 12.554,35.703 12.378,35.614 12.215,35.509 12.027,35.388 11.817,35.252 11.429,34.951 11.021,34.548 10.625,34.02 10.44,33.742 10.242,33.447 10.035,33.135 9.856,32.793 9.667,32.434 9.471,32.059 9.113,31.276 8.735,30.422 8.381,29.469 8.031,28.505 7.662,27.489 7.28,26.438 6.864,25.371 6.434,24.268 5.997,23.147 5.555,22.013 5.179,20.829 4.801,19.64 3.36,14.859 2.357,9.906 1.566,6.195 0.824,2.474 0.397,-0.031 0.397,-0.031 Z" /></g><g
           transform="translate(290.8633,24.2138)"
           id="g216"><path
             id="path218"
             style="fill:#379922;fill-opacity:1;fill-rule:nonzero;stroke:none"
             d="m 0,0 c 0,0 -0.105,0.149 -0.302,0.429 -0.171,0.312 -0.368,0.899 -0.433,1.551 -0.074,0.67 -0.051,1.48 0.062,2.391 0.127,0.905 0.312,1.923 0.606,3.001 1.105,4.35 3.65,9.792 7.194,14.697 0.895,1.223 1.844,2.416 2.871,3.543 0.995,1.153 2.153,2.165 3.358,3.054 1.27,0.813 2.567,1.55 3.977,1.918 0.671,0.239 1.394,0.331 2.06,0.457 0.686,0.064 1.364,0.068 1.997,0.043 1.286,-0.109 2.422,-0.449 3.326,-0.892 0.442,-0.251 0.863,-0.451 1.21,-0.697 0.327,-0.268 0.627,-0.515 0.898,-0.738 0.53,-0.44 0.831,-0.907 1.066,-1.175 0.219,-0.284 0.336,-0.435 0.336,-0.435 l -0.257,-0.304 c 0,0 -0.176,0.065 -0.506,0.186 -0.337,0.1 -0.766,0.346 -1.365,0.498 -0.59,0.173 -1.282,0.366 -2.072,0.44 -0.782,0.103 -1.646,0.053 -2.544,-0.069 -0.9,-0.194 -1.845,-0.451 -2.81,-0.928 C 17.705,26.534 16.723,25.896 15.701,25.241 14.696,24.53 13.621,23.805 12.59,22.926 11.536,22.083 10.565,21.079 9.603,20.062 5.841,15.884 2.918,10.864 1.28,6.926 0.467,4.953 0.016,3.212 -0.03,2.006 -0.05,1.383 0.012,0.988 0.107,0.678 0.259,0.371 0.34,0.208 0.34,0.208 Z" /></g><g
           transform="translate(290.8824,24.9831)"
           id="g220"><path
             id="path222"
             style="fill:#358727;fill-opacity:1;fill-rule:nonzero;stroke:none"
             d="m 0,0 c 0,0 -0.031,2.315 -0.077,5.786 -0.129,3.465 -0.227,8.077 -0.728,12.611 -0.23,2.267 -0.724,4.489 -1.064,6.527 -0.295,2.048 -0.518,3.926 -0.825,5.479 -0.087,0.382 -0.17,0.748 -0.249,1.097 -0.103,0.334 -0.201,0.651 -0.293,0.948 -0.209,0.579 -0.446,1.052 -0.681,1.443 -0.258,0.347 -0.493,0.656 -0.7,0.805 -0.203,0.184 -0.312,0.282 -0.312,0.282 l 0.099,0.386 c 0,0 0.161,-0.005 0.464,-0.016 0.329,0.012 0.764,-0.104 1.338,-0.338 0.54,-0.261 1.149,-0.684 1.734,-1.275 0.556,-0.598 1.114,-1.331 1.572,-2.181 C 0.74,30.711 1.157,29.763 1.476,28.749 1.831,27.74 2.074,26.653 2.237,25.534 2.533,23.281 2.412,20.885 2.38,18.53 2.265,13.816 1.856,9.169 1.34,5.706 0.872,2.242 0.396,-0.04 0.396,-0.04 Z" /></g><g
           transform="translate(372.1966,24.9826)"
           id="g224"><path
             id="path226"
             style="fill:#379922;fill-opacity:1;fill-rule:nonzero;stroke:none"
             d="m 0,0 c 0,0 0.015,0.18 0.043,0.516 0.081,0.352 0.278,0.906 0.596,1.461 0.635,1.153 1.802,2.594 3.33,4.172 1.53,1.58 3.426,3.311 5.6,4.988 2.165,1.689 4.571,3.373 7.101,4.902 2.538,1.503 5.146,3.015 7.894,3.914 2.73,0.862 5.654,1.11 8.169,0.404 1.246,-0.394 2.373,-1.007 3.094,-1.844 0.395,-0.378 0.65,-0.81 0.865,-1.211 0.244,-0.385 0.344,-0.781 0.438,-1.128 0.23,-0.68 0.202,-1.232 0.215,-1.594 0.002,-0.358 0.003,-0.549 0.003,-0.549 l -0.391,-0.08 c 0,0 -0.099,0.154 -0.286,0.444 -0.191,0.28 -0.399,0.716 -0.813,1.13 -0.181,0.22 -0.376,0.459 -0.656,0.635 -0.243,0.208 -0.501,0.417 -0.838,0.54 -0.588,0.353 -1.38,0.449 -2.222,0.524 -0.88,0.005 -1.864,-0.085 -2.938,-0.311 C 28.136,16.666 26.988,16.371 25.789,15.987 24.585,15.639 23.32,15.238 22.03,14.796 20.737,14.36 19.456,13.798 18.173,13.227 13.076,10.841 8.283,7.705 4.923,5.099 3.247,3.787 1.981,2.541 1.229,1.59 0.845,1.096 0.649,0.735 0.517,0.449 0.437,0.12 0.395,-0.056 0.395,-0.056 Z" /></g><g
           transform="translate(371.9071,24.1757)"
           id="g228"><path
             id="path230"
             style="fill:#39a02a;fill-opacity:1;fill-rule:nonzero;stroke:none"
             d="m 0,0 c 0,0 1.176,1.966 2.939,4.915 1.711,2.977 4.079,6.88 6.194,10.892 1.076,1.995 1.946,4.093 2.89,5.949 0.985,1.835 1.987,3.478 2.799,4.891 0.394,0.71 0.778,1.356 1.045,1.935 0.299,0.579 0.509,1.092 0.641,1.514 0.143,0.428 0.196,0.78 0.191,1.017 -0.01,0.257 -0.015,0.394 -0.015,0.394 l 0.332,0.22 c 0,0 0.115,-0.122 0.33,-0.351 0.129,-0.122 0.22,-0.29 0.314,-0.501 0.106,-0.211 0.228,-0.468 0.276,-0.748 0.164,-0.576 0.23,-1.283 0.203,-2.055 C 18.121,27.286 18.014,26.434 17.811,25.537 17.428,23.735 16.714,21.754 15.687,19.805 14.619,17.874 13.172,16.027 11.845,14.132 9.15,10.364 6.347,6.718 4.097,4.095 1.888,1.445 0.318,-0.24 0.318,-0.24 Z" /></g><g
           transform="translate(371.8245,24.455)"
           id="g232"><path
             id="path234"
             style="fill:#39a02a;fill-opacity:1;fill-rule:nonzero;stroke:none"
             d="m 0,0 c 0,0 0.882,1.844 2.206,4.611 1.27,2.789 3.057,6.448 4.579,10.187 0.782,1.86 1.345,3.802 2.012,5.519 0.356,0.85 0.697,1.661 1.074,2.409 0.343,0.75 0.667,1.458 0.966,2.112 0.27,0.648 0.545,1.242 0.711,1.759 0.096,0.261 0.184,0.51 0.221,0.722 0.073,0.234 0.114,0.432 0.124,0.608 0.053,0.369 0.023,0.665 -0.05,0.858 -0.081,0.214 -0.124,0.328 -0.124,0.328 l 0.225,0.329 c 0,0 0.142,-0.062 0.407,-0.178 0.155,-0.057 0.299,-0.169 0.447,-0.333 0.166,-0.157 0.352,-0.357 0.467,-0.605 0.317,-0.497 0.493,-1.141 0.609,-1.858 0.11,-0.725 0.131,-1.517 0.066,-2.36 -0.058,-0.84 -0.204,-1.722 -0.421,-2.627 -0.201,-0.907 -0.51,-1.827 -0.884,-2.744 -0.79,-1.82 -1.956,-3.576 -2.999,-5.364 C 7.509,9.814 5.265,6.372 3.428,3.89 1.634,1.384 0.337,-0.213 0.337,-0.213 Z" /></g><g
           transform="translate(371.5341,24.5888)"
           id="g236"><path
             id="path238"
             style="fill:#358727;fill-opacity:1;fill-rule:nonzero;stroke:none"
             d="m 0,0 c 0,0 1.114,2.181 2.785,5.451 1.62,3.294 3.878,7.623 5.891,12.043 1.026,2.2 1.841,4.491 2.747,6.534 0.474,1.013 0.94,1.983 1.419,2.879 0.455,0.899 0.885,1.75 1.282,2.535 0.387,0.785 0.726,1.494 0.976,2.126 0.27,0.636 0.412,1.16 0.501,1.598 0.04,0.398 0.012,0.704 -0.108,0.904 -0.155,0.198 -0.237,0.303 -0.237,0.303 l 0.12,0.38 c 0,0 0.163,-0.02 0.533,-0.122 0.353,-0.116 0.81,-0.544 1.094,-1.19 0.244,-0.619 0.39,-1.405 0.398,-2.238 C 17.41,30.366 17.349,29.437 17.164,28.482 16.832,26.549 16.168,24.414 15.189,22.283 14.168,20.168 12.766,18.101 11.486,15.99 8.886,11.789 6.179,7.691 3.998,4.715 c -2.139,-3 -3.663,-4.93 -3.663,-4.93 z" /></g><g
           transform="translate(372.1117,23.6555)"
           id="g240"><path
             id="path242"
             style="fill:#379922;fill-opacity:1;fill-rule:nonzero;stroke:none"
             d="m 0,0 c 0,0 0.111,0.104 0.318,0.3 0.215,0.208 0.425,0.487 0.708,0.924 0.555,0.863 1.242,2.186 1.903,3.849 0.666,1.661 1.32,3.65 1.958,5.789 0.622,2.144 1.18,4.461 1.567,6.782 0.399,2.319 0.456,4.667 0.477,6.712 0,1.006 0.003,1.974 -0.083,2.776 C 6.74,27.928 6.559,28.546 6.33,28.954 6.115,29.363 5.671,29.591 5.129,29.784 4.562,29.916 3.971,29.945 3.459,29.938 2.949,29.948 2.535,29.867 2.24,29.868 1.942,29.853 1.784,29.845 1.784,29.845 l -0.169,0.361 c 0,0 0.122,0.106 0.35,0.305 0.24,0.187 0.568,0.507 1.079,0.794 0.266,0.139 0.561,0.294 0.882,0.462 0.345,0.131 0.756,0.228 1.2,0.347 0.895,0.104 2.228,0.095 3.352,-0.806 1.107,-0.845 1.749,-2.093 2.125,-3.308 0.404,-1.228 0.47,-2.471 0.478,-3.73 C 10.97,21.773 10.245,19.318 9.558,16.921 8.114,12.14 6.133,7.613 4.199,4.44 3.244,2.851 2.345,1.579 1.578,0.785 1.21,0.39 0.834,0.064 0.609,-0.08 0.37,-0.234 0.242,-0.317 0.242,-0.317 Z" /></g><g
           transform="translate(372.4327,24.1754)"
           id="g244"><path
             id="path246"
             style="fill:#358727;fill-opacity:1;fill-rule:nonzero;stroke:none"
             d="m 0,0 c 0,0 1.071,2.176 2.834,5.354 1.721,3.206 4.22,7.355 6.845,11.459 1.33,2.038 2.565,4.168 4,5.98 1.468,1.781 3.067,3.284 4.603,4.422 0.758,0.579 1.511,1.052 2.223,1.427 0.703,0.375 1.366,0.651 1.963,0.79 0.565,0.165 1.086,0.185 1.411,0.142 0.323,-0.061 0.496,-0.093 0.496,-0.093 l -0.012,-0.399 c 0,0 -0.127,-0.068 -0.365,-0.196 C 23.78,28.744 23.478,28.535 23.135,28.168 22.791,27.832 22.391,27.376 21.959,26.822 21.515,26.293 21.048,25.638 20.521,24.946 19.484,23.543 18.286,21.881 16.892,20.165 15.463,18.479 13.77,16.777 12.249,14.927 9.17,11.255 6.27,7.412 4.02,4.575 1.811,1.704 0.338,-0.211 0.338,-0.211 Z" /></g></g></g></g></svg>